<svg height="1026" viewBox="0 0 1026 1026" width="1026" xmlns="http://www.w3.org/2000/svg" xmlns:xlink="http://www.w3.org/1999/xlink"><linearGradient id="a" x1="27.547471%" x2="78.615383%" y1="5.201963%" y2="91.100477%"><stop offset="0" stop-color="#fff"/><stop offset="1" stop-color="#e2e2e2"/></linearGradient><linearGradient id="b" x1="21.926541%" x2="80.090332%" y1="8.426921%" y2="88.632541%"><stop offset="0" stop-color="#0080fc" stop-opacity=".517012"/><stop offset="1" stop-color="#0082ff"/></linearGradient><g fill="none" fill-rule="evenodd"><g stroke-width=".5" transform="translate(1 1)"><path d="m512 1024c282.769806 0 512-229.230194 512-512s-229.230194-512-512-512-512 229.230194-512 512 229.230194 512 512 512z" fill="url(#a)" stroke="#3b3b3b"/><circle cx="512" cy="512" fill="url(#b)" r="460.8" stroke="#afacac"/></g><g transform="translate(186.34767 279.939068)"><path d="m78.5092265.93038296c-25.8595248.00000279-77.57857444 0-77.57857444 0v465.19148104h651.45644494v-465.19148104z" fill="#fff"/><path d="m346.39227 288.084954v6.663082c0 1.040627-.06795 1.793905-.203853 2.259857s-.363051.88142-.681452 1.246416c-.411591.473718-.982374.830942-1.712365 1.071684-.729992.240742-1.607522.361111-2.632617.361111-.722226 0-1.419202-.069891-2.09095-.209677-.671747-.139786-1.318246-.349461-1.939516-.629032-.341698-.155318-.564963-.357227-.669803-.605735-.104839-.248508-.157258-.652327-.157258-1.21147v-2.399641c0-.667865.097072-1.13381.291219-1.39785.194147-.264039.531957-.396057 1.013441-.396057.691162 0 1.071684.508657 1.141577 1.525986.007766.178615.019414.314515.034946.407706.09319.900841.302866 1.516276.629032 1.846326.326167.330049.846472.495072 1.560932.495072.885309 0 1.508511-.234914 1.869624-.70475.361113-.469835.541667-1.326009.541667-2.568548v-5.75448h-1.95699c-.528079 0-.906659-.100955-1.135752-.302868-.229094-.201912-.343638-.528074-.343638-.978494 0-.458187.110662-.784348.331989-.978495s.60379-.291219 1.147401-.291219h5.94086c.543611 0 .926075.097072 1.147402.291219s.331989.520308.331989.978495c0 .45042-.114545.776582-.343638.978494-.229093.201913-.607673.302868-1.135753.302868zm10.111111-.256273c-1.001797 0-1.78808.403819-2.358871 1.21147-.570791.80765-.856183 1.929802-.856183 3.366487 0 1.436686.287333 2.56272.862007 3.378137.574675.815416 1.359016 1.223118 2.353047 1.223118 1.001797 0 1.790021-.405761 2.364695-1.217294.574675-.811533.862007-1.939509.862007-3.383961 0-1.436685-.285391-2.558837-.856182-3.366487-.570792-.807651-1.360957-1.21147-2.37052-1.21147zm0-2.702509c1.910404 0 3.482969.683387 4.717742 2.05018s1.85215 3.110204 1.85215 5.230286c0 2.135614-.613494 3.882909-1.840501 5.241936-1.227008 1.359027-2.803455 2.03853-4.729391 2.03853-1.902638 0-3.475203-.685327-4.717742-2.056003s-1.863799-3.112146-1.863799-5.224463c0-2.127848.615436-3.873201 1.846326-5.236111s2.809279-2.044355 4.735215-2.044355zm12.417563 2.958782v2.679211h3.809139v-2.679211h-.186379c-.419357 0-.739695-.108721-.961022-.326165s-.331989-.53584-.331989-.955197c0-.458187.114545-.788231.343638-.990144.229093-.201912.607673-.302867 1.135752-.302867h3.005377c.528079 0 .902777.100955 1.124104.302867.221327.201913.331989.531957.331989.990144 0 .419357-.106779.737753-.32034.955197-.213562.217444-.526133.326165-.937724.326165h-.198029v8.689964h.198029c.419356 0 .737752.106779.955197.32034.217444.213562.326165.526133.326165.937724 0 .458187-.112604.788231-.337814.990144-.22521.201912-.605732.302867-1.141577.302867h-3.005377c-.535844 0-.916366-.099013-1.141577-.297043-.22521-.198029-.337813-.530015-.337813-.995968 0-.411591.110662-.724162.331989-.937724.221327-.213561.541665-.32034.961022-.32034h.186379v-3.43638h-3.809139v3.43638h.18638c.419357 0 .739694.106779.961021.32034.221327.213562.331989.526133.331989.937724 0 .458187-.114544.788231-.343638.990144-.229093.201912-.607673.302867-1.135752.302867h-3.005377c-.535845 0-.916366-.099013-1.141577-.297043-.22521-.198029-.337813-.530015-.337813-.995968 0-.411591.10872-.724162.326165-.937724.217444-.213561.53584-.32034.955197-.32034h.198028v-8.689964h-.198028c-.411591 0-.724163-.108721-.937724-.326165-.213562-.217444-.320341-.53584-.320341-.955197 0-.458187.110662-.788231.331989-.990144.221328-.201912.596025-.302867 1.124104-.302867h3.005377c.520313 0 .896952.100955 1.129928.302867.232976.201913.349462.531957.349462.990144 0 .419357-.110662.737753-.331989.955197s-.541664.326165-.961021.326165zm18.917562 6.418459v-6.418459h-.640681c-.512547 0-.879479-.100955-1.100806-.302868-.221327-.201912-.331989-.528074-.331989-.978494 0-.450421.110662-.778524.331989-.984319.221327-.205796.588259-.308692 1.100806-.308692h3.308244c.504782 0 .869772.102896 1.094982.308692.22521.205795.337814.533898.337814.984319 0 .411591-.106779.728045-.320341.949373-.213561.221327-.518367.331989-.914426.331989h-.198029v10.577061c0 .364996-.038829.594085-.116487.687276-.077659.09319-.252388.139785-.524194.139785h-1.164874c-.372762 0-.634856-.038829-.786291-.116488-.151434-.077659-.281511-.213559-.390233-.407706l-4.845878-8.515233v6.325269h.675627c.504782 0 .865889.097072 1.083334.291219.217444.194146.326165.516425.326165.966845 0 .458187-.110662.788231-.33199.990144-.221327.201912-.580493.302867-1.077509.302867h-3.34319c-.504781 0-.869771-.100955-1.094982-.302867-.22521-.201913-.337813-.531957-.337813-.990144 0-.411591.104837-.724162.314516-.937724.209678-.213561.520308-.32034.9319-.32034h.186379v-8.689964h-.186379c-.39606 0-.702807-.110662-.920251-.331989-.217445-.221328-.326165-.537782-.326165-.949373 0-.450421.114545-.778524.343638-.984319.229093-.205796.592142-.308692 1.089157-.308692h1.910395c.458186 0 .768816.060185.931899.180556.163084.120371.345579.36305.547491.728046zm21.025986 2.271505v-8.689964h-.198029c-.419357 0-.737752-.108721-.955197-.326165-.217444-.217444-.326165-.53584-.326165-.955197 0-.450421.116487-.778524.349463-.984319.232976-.205796.609615-.308692 1.129928-.308692h2.87724c1.623067 0 2.811227.069892 3.564516.209677.75329.139786 1.393964.372759 1.922043.698925.939671.559143 1.659944 1.357074 2.160843 2.393817.500898 1.036744.751344 2.234611.751344 3.593638 0 1.436686-.285392 2.692797-.856183 3.76837-.570791 1.075572-1.380371 1.889035-2.428763 2.440412-.473718.248508-1.02897.429061-1.665771.541666s-1.584223.168907-2.842294.168907h-3.482975c-.535845 0-.916367-.099013-1.141577-.297043-.22521-.198029-.337814-.530015-.337814-.995968 0-.411591.108721-.724162.326165-.937724.217445-.213561.53584-.32034.955197-.32034zm3.005376-8.736559v8.736559h.663979c1.467749 0 2.551072-.359166 3.25-1.077509s1.048387-1.823021 1.048387-3.314068c0-1.467749-.355283-2.562721-1.06586-3.284946-.710577-.722226-1.78031-1.083334-3.20923-1.083334-.18638 0-.328105.001942-.425179.005825-.097073.003883-.184438.009707-.262097.017473zm16.215054-.209678c-1.001797 0-1.788079.403819-2.358871 1.21147-.570791.80765-.856183 1.929802-.856183 3.366487 0 1.436686.287333 2.56272.862008 3.378137.574674.815416 1.359015 1.223118 2.353046 1.223118 1.001797 0 1.790021-.405761 2.364696-1.217294.574674-.811533.862007-1.939509.862007-3.383961 0-1.436685-.285392-2.558837-.856183-3.366487-.570791-.807651-1.360957-1.21147-2.37052-1.21147zm0-2.702509c1.910404 0 3.482969.683387 4.717742 2.05018s1.852151 3.110204 1.852151 5.230286c0 2.135614-.613495 3.882909-1.840502 5.241936s-2.803455 2.03853-4.729391 2.03853c-1.902638 0-3.475203-.685327-4.717742-2.056003s-1.863799-3.112146-1.863799-5.224463c0-2.127848.615436-3.873201 1.846326-5.236111s2.80928-2.044355 4.735215-2.044355zm17.659498 2.842294h-5.416666v2.982079h2.050179v-.139785c0-.442654.097072-.772699.291219-.990143.194146-.217445.489245-.326165.885304-.326165.349464 0 .634856.099013.856183.297043s.331989.448475.331989.751344c0 .015532.003883.066009.011649.151434.007766.085424.011649.170848.011649.256272v2.41129c0 .520314-.093189.89307-.27957 1.11828s-.489245.337814-.908602.337814c-.39606 0-.695041-.104838-.896954-.314516-.201912-.209679-.302867-.520309-.302867-.9319v-.209678h-2.050179v3.482975h5.416666v-1.3862c0-.520314.099014-.89307.297043-1.11828.19803-.22521.52225-.337814.972671-.337814.442654 0 .759109.110662.949372.33199.190264.221327.285395.596025.285395 1.124104v2.818996c0 .419357-.081541.698924-.244624.83871-.163083.139785-.485362.209677-.966846.209677h-9.540322c-.512548 0-.87948-.100955-1.100807-.302867-.221327-.201913-.331989-.531957-.331989-.990144 0-.411591.104838-.724162.314516-.937724.209678-.213561.516426-.32034.920251-.32034h.198029v-8.689964h-.198029c-.396059 0-.700865-.110662-.914427-.331989-.213561-.221328-.32034-.537782-.32034-.949373 0-.450421.112603-.778524.337814-.984319.22521-.205796.5902-.308692 1.094982-.308692h9.540322c.473718 0 .794055.071833.961022.215502.166966.143668.250448.42906.250448.856183v2.609319c0 .528079-.097072.906659-.291219 1.135752s-.50866.343638-.943548.343638c-.450421 0-.774641-.116486-.972671-.349462-.198029-.232976-.297043-.609615-.297043-1.129928zm-105.10663 37.181004h4.077061v-.069893c0-.396059.106779-.691158.32034-.885304.213561-.194147.530016-.291219.949373-.291219.341698 0 .605734.095131.792114.285394.186381.190264.27957.460124.27957.809588v.151434l-.09319 1.805555c-.015531.35723-.071833.582437-.168906.675628-.097074.09319-.269862.139785-.51837.139785h-8.375448c-.45042 0-.797937-.097072-1.042562-.291219s-.366936-.469831-.366936-.827061c0-.295103.075716-.584377.227151-.867831.151434-.283455.394114-.584378.728046-.902778l4.74104-4.577957c.512547-.497016.89501-.994024 1.147401-1.49104.252391-.497015.378584-.994023.378584-1.491039 0-.698928-.168905-1.219234-.50672-1.560932s-.852296-.512545-1.543459-.512545c-.403825 0-.762991.060185-1.077509.180556-.314517.120371-.557197.289276-.728046.50672-.093191.108722-.205794.275686-.337814.500896-.372762.605738-.784347.908602-1.234767.908602-.388293 0-.681451-.128135-.87948-.384408-.19803-.256274-.297043-.636796-.297043-1.141577 0-.520314.062126-.908601.18638-1.164875s.372758-.512543.745519-.768817c.605738-.403825 1.244471-.702807 1.916219-.896953.671748-.194147 1.399787-.291219 2.18414-.291219 1.467749 0 2.630671.396053 3.488799 1.188172.858129.792119 1.287186 1.856027 1.287186 3.191756 0 .893075-.223265 1.749249-.669802 2.568549-.446538.819299-1.139631 1.636644-2.079302 2.452061zm15.865591-9.831541c-.823182 0-1.473564.450413-1.951165 1.351254s-.716398 2.143361-.716398 3.727599c0 1.607535.236856 2.863645.710574 3.768369s1.126041 1.357079 1.956989 1.357079 1.485213-.452355 1.962814-1.357079.716397-2.160834.716397-3.768369c0-1.584238-.238796-2.826758-.716397-3.727599s-1.131866-1.351254-1.962814-1.351254zm-.023298-2.620968c1.78615 0 3.2034.693093 4.251793 2.079301 1.048392 1.386208 1.57258 3.267461 1.57258 5.643817 0 2.384122-.524188 4.269258-1.57258 5.655466-1.048393 1.386208-2.465643 2.079301-4.251793 2.079301-1.770618 0-3.174277-.693093-4.211021-2.079301s-1.555108-3.271344-1.555108-5.655466.518364-4.267317 1.555108-5.649641c1.036744-1.382325 2.440403-2.073477 4.211021-2.073477zm14.339606 2.620968c-.823182 0-1.473564.450413-1.951165 1.351254s-.716397 2.143361-.716397 3.727599c0 1.607535.236855 2.863645.710573 3.768369s1.126041 1.357079 1.956989 1.357079 1.485213-.452355 1.962814-1.357079.716398-2.160834.716398-3.768369c0-1.584238-.238797-2.826758-.716398-3.727599s-1.131866-1.351254-1.962814-1.351254zm-.023297-2.620968c1.78615 0 3.2034.693093 4.251792 2.079301s1.57258 3.267461 1.57258 5.643817c0 2.384122-.524188 4.269258-1.57258 5.655466s-2.465642 2.079301-4.251792 2.079301c-1.770618 0-3.174278-.693093-4.211022-2.079301-1.036743-1.386208-1.555107-3.271344-1.555107-5.655466s.518364-4.267317 1.555107-5.649641c1.036744-1.382325 2.440404-2.073477 4.211022-2.073477zm28.679211 9.109319 2.224911-6.604839c.139785-.434888.333929-.751343.582437-.949373.248508-.198029.578552-.297043.990143-.297043h1.817205c.528079 0 .906659.100955 1.135752.302868.229093.201912.343638.531957.343638.990143 0 .419357-.110662.737753-.331989.955197-.221327.217445-.541665.326165-.961022.326165h-.186379l.326164 8.689964h.198029c.419357 0 .73387.106779.943548.320341.209679.213561.314517.526133.314517.937724 0 .458186-.110662.788231-.33199.990143-.221327.201913-.596024.302868-1.124104.302868h-2.620967c-.528079 0-.902777-.099014-1.124104-.297043-.221328-.19803-.33199-.530016-.33199-.995968 0-.411591.10678-.724163.320341-.937724.213561-.213562.530016-.320341.949373-.320341h.18638l-.163083-7.105734-1.700717 5.28853c-.124254.396059-.300924.681451-.530018.856183-.229093.174732-.545547.262097-.949372.262097s-.724163-.087365-.961022-.262097-.417413-.460124-.541666-.856183l-1.689069-5.28853-.163082 7.105734h.18638c.419357 0 .735811.106779.949373.320341.213561.213561.32034.526133.32034.937724 0 .458186-.112603.788231-.337813.990143-.225211.201913-.597967.302868-1.11828.302868h-2.632616c-.520314 0-.89307-.100955-1.11828-.302868-.22521-.201912-.337814-.531957-.337814-.990143 0-.411591.106779-.724163.320341-.937724.213561-.213562.530016-.320341.949373-.320341h.18638l.337813-8.689964h-.18638c-.419357 0-.739694-.10872-.961021-.326165-.221328-.217444-.33199-.53584-.33199-.955197 0-.458186.114545-.788231.343638-.990143.229094-.201913.607674-.302868 1.135753-.302868h1.817204c.403826 0 .728046.097072.972671.291219s.444593.512543.59991.955197zm20.163979 3.413082h.198028c.419357 0 .737753.106779.955198.320341.217444.213561.326164.526133.326164.937724 0 .458186-.114544.788231-.343638.990143-.229093.201913-.607673.302868-1.135752.302868h-3.506273c-.535845 0-.916367-.099014-1.141577-.297043-.22521-.19803-.337813-.530016-.337813-.995968 0-.450421.112603-.772699.337813-.966846s.605732-.291219 1.141577-.291219h.407706l-.477598-1.362903h-5.032258l-.500896 1.362903h.407706c.528079 0 .906659.099014 1.135752.297043.229094.19803.343638.518367.343638.961022 0 .458186-.114544.788231-.343638.990143-.229093.201913-.607673.302868-1.135752.302868h-3.005377c-.535845 0-.916366-.100955-1.141577-.302868-.22521-.201912-.337813-.531957-.337813-.990143 0-.411591.10872-.724163.326165-.937724.217444-.213562.53584-.320341.955197-.320341h.198028l3.121864-8.689964h-.931899c-.528079 0-.90666-.100955-1.135753-.302867-.229093-.201913-.343638-.528074-.343638-.978495 0-.458186.114545-.788231.343638-.990143.229093-.201913.607674-.302868 1.135753-.302868h4.368279c.691163 0 1.176522.372757 1.456093 1.11828v.034946zm-6.103943-8.689964-1.689068 4.915771h3.378136zm16.051971 0v8.689964h1.95699c.528079 0 .906659.099014 1.135752.297043.229093.19803.343638.518367.343638.961022 0 .45042-.116486.778523-.349462.984319-.232976.205795-.609615.308692-1.129928.308692h-6.919355c-.528079 0-.90666-.100955-1.135753-.302868-.229093-.201912-.343638-.531957-.343638-.990143 0-.450421.112604-.772699.337814-.966846s.605732-.291219 1.141577-.291219h1.956989v-8.689964h-1.956989c-.528079 0-.90666-.100955-1.135753-.302867-.229093-.201913-.343638-.528074-.343638-.978495 0-.458186.112604-.784348.337814-.978494.22521-.194147.605732-.291219 1.141577-.291219h6.919355c.551376 0 .935781.097072 1.153225.291219.217445.194146.326165.520308.326165.978494 0 .450421-.112603.776582-.337813.978495-.225211.201912-.605732.302867-1.141577.302867zm15.516129 6.418459v-6.418459h-.640681c-.512547 0-.879479-.100955-1.100806-.302867-.221327-.201913-.331989-.528074-.331989-.978495 0-.45042.110662-.778523.331989-.984319.221327-.205795.588259-.308692 1.100806-.308692h3.308244c.504782 0 .869772.102897 1.094982.308692.22521.205796.337814.533899.337814.984319 0 .411591-.106779.728046-.320341.949373-.213561.221327-.518367.331989-.914426.331989h-.198029v10.577061c0 .364996-.038829.594086-.116487.687276-.077659.093191-.252388.139785-.524194.139785h-1.164874c-.372762 0-.634856-.038829-.786291-.116487-.151434-.077659-.281511-.21356-.390233-.407706l-4.845878-8.515233v6.325268h.675627c.504782 0 .865889.097072 1.083334.291219.217444.194147.326165.516425.326165.966846 0 .458186-.110662.788231-.33199.990143-.221327.201913-.580493.302868-1.077509.302868h-3.34319c-.504781 0-.869771-.100955-1.094982-.302868-.22521-.201912-.337813-.531957-.337813-.990143 0-.411591.104837-.724163.314516-.937724.209678-.213562.520308-.320341.931899-.320341h.18638v-8.689964h-.18638c-.396059 0-.702806-.110662-.92025-.331989-.217445-.221327-.326165-.537782-.326165-.949373 0-.45042.114545-.778523.343638-.984319.229093-.205795.592142-.308692 1.089157-.308692h1.910395c.458186 0 .768816.060185.931899.180556.163084.120371.345579.363051.547491.728047zm28.842294-8.72491c.116488-.248508.248506-.419355.396058-.512545.147551-.093191.372758-.139785.675627-.139785.45042 0 .739695.083482.867831.250448.128137.166966.19997.498952.215502.995968l.046595 2.236559v.128136c0 .458186-.091247.778524-.273745.961021-.182498.182498-.491187.273746-.926076.273746-.551376 0-.962961-.295099-1.234767-.885305-.038829-.085424-.069892-.155316-.09319-.209677-.240742-.481484-.566903-.844533-.978494-1.089158s-.896951-.366935-1.456093-.366935c-.698929 0-1.263887.161139-1.694893.483423-.431006.322283-.646505.73581-.646505 1.240591 0 .71446.98625 1.277477 2.958781 1.689068.333933.069893.597968.124253.792115.163083 1.491047.326166 2.570486.823174 3.238351 1.491039s1.001792 1.580341 1.001792 2.737455c0 1.42892-.485359 2.529716-1.456093 3.30242s-2.360803 1.15905-4.170251 1.15905c-.706694 0-1.337661-.046595-1.892921-.139785-.55526-.093191-1.093038-.236857-1.613351-.431004-.124254.201913-.267921.347521-.431004.436828-.163083.089308-.38829.133961-.675627.133961-.48925 0-.830943-.093189-1.02509-.27957-.194146-.186381-.295101-.516426-.302867-.990144l-.046595-2.737455v-.128136c0-.512547.09513-.869772.285394-1.071685.190264-.201912.52225-.302867.995968-.302867.504781 0 .928015.36499 1.269713 1.094982.077659.178615.139785.314516.18638.407706.302869.597972.724161 1.044503 1.263889 1.339606s1.201758.442652 1.986111.442652c.71446 0 1.269711-.147549 1.665771-.442652.396059-.295103.594086-.710571.594086-1.246416 0-.830948-.896945-1.459974-2.69086-1.887097-.535845-.124253-.959079-.229091-1.269714-.314516-1.506578-.396059-2.551072-.891126-3.133512-1.485215s-.873656-1.407551-.873656-2.440412c0-1.327964.498949-2.413227 1.496864-3.255824.997914-.842597 2.28897-1.263889 3.873207-1.263889.52808 0 1.046444.05436 1.555108.163082s1.01538.271803 1.520161.489248zm15.341398 2.283154h-2.434588v8.689964h1.95699c.520313 0 .893069.100955 1.118279.302867.22521.201913.337814.528074.337814.978495 0 .458186-.112604.788231-.337814.990143-.22521.201913-.597966.302868-1.118279.302868h-6.919355c-.512548 0-.881421-.100955-1.106631-.302868-.22521-.201912-.337814-.531957-.337814-.990143s.110662-.786289.33199-.984319c.221327-.19803.592142-.297043 1.112455-.297043h1.956989v-8.689964h-2.434588l-.069892 2.364695v.291219c0 .372761-.102897.663977-.308692.873656-.205796.209678-.491187.314516-.856183.314516-.434889 0-.755226-.110662-.961021-.33199-.205796-.221327-.308692-.572727-.308692-1.054211v-.09319l.128136-3.482975c.023298-.691162.118428-1.10663.285394-1.246416.166967-.139785.506718-.209677 1.019266-.209677h10.017921c.512547 0 .852299.069892 1.019265.209677.166966.139786.26598.555254.297043 1.246416l.116487 3.482975v.09319c0 .48925-.097071.842592-.291218 1.060036s-.50866.326165-.943549.326165c-.419357 0-.720279-.106779-.902777-.320341-.182498-.213561-.281512-.599907-.297043-1.15905zm13.291219 4.91577c.201912.124254.399939.349461.594086.675628.031063.046595.058243.085424.081541.116487l1.898746 3.005376h.361111c.45042 0 .790172.104838 1.019265.314516.229093.209679.343638.524192.343638.943549 0 .458186-.114545.788231-.343638.990143-.229093.201913-.607674.302868-1.135753.302868h-1.432795c-.52808 0-.939664-.22909-1.234768-.687276l-.034946-.023298-2.853942-4.391577c-.108723-.170849-.232975-.300925-.37276-.390233-.139786-.089307-.287335-.13396-.442653-.13396h-1.094982v3.075268h.18638c.419357 0 .735812.106779.949373.320341.213561.213561.320341.526133.320341.937724 0 .458186-.110662.788231-.33199.990143-.221327.201913-.596025.302868-1.124104.302868h-3.005376c-.520313 0-.893069-.100955-1.11828-.302868-.22521-.201912-.337813-.531957-.337813-.990143 0-.411591.106779-.724163.32034-.937724.213562-.213562.526133-.320341.937724-.320341h.198029v-8.689964h-.198029c-.403825 0-.714455-.110662-.931899-.331989-.217445-.221327-.326165-.537782-.326165-.949373 0-.45042.114545-.778523.343638-.984319.229093-.205795.599908-.308692 1.112455-.308692h5.370072c1.646364 0 2.892767.320338 3.739247.961022s1.269713 1.586165 1.269713 2.836469c0 .869778-.234914 1.623056-.704749 2.259857s-1.143514 1.106629-2.021057 1.409498zm-4.787635-4.962365v3.296595h1.572581c.970734 0 1.650237-.126194 2.038531-.378585.388293-.25239.582437-.673682.582437-1.263888 0-.582441-.176671-1.003733-.530018-1.263889-.353347-.260157-.922189-.390233-1.706541-.390233zm19.534947-.046595h-5.416667v2.982079h2.050179v-.139785c0-.442655.097072-.772699.291219-.990144.194147-.217444.489245-.326165.885304-.326165.349465 0 .634856.099014.856183.297043.221328.19803.33199.448476.33199.751344 0 .015532.003882.06601.011648.151434.007766.085425.011649.170848.011649.256273v2.41129c0 .520313-.093189.893069-.27957 1.118279-.186381.225211-.489245.337814-.908602.337814-.396059 0-.695041-.104838-.896953-.314516-.201913-.209678-.302868-.520309-.302868-.9319v-.209677h-2.050179v3.482975h5.416667v-1.386201c0-.520313.099013-.893069.297043-1.118279.198029-.225211.522249-.337814.97267-.337814.442654 0 .759109.110662.949373.331989.190263.221327.285394.596025.285394 1.124104v2.818997c0 .419356-.08154.698924-.244624.838709-.163083.139786-.485362.209678-.966846.209678h-9.540322c-.512548 0-.879479-.100955-1.100807-.302868-.221327-.201912-.331989-.531957-.331989-.990143 0-.411591.104838-.724163.314516-.937724.209679-.213562.516426-.320341.920251-.320341h.198029v-8.689964h-.198029c-.396059 0-.700865-.110662-.914426-.331989-.213562-.221327-.320341-.537782-.320341-.949373 0-.45042.112604-.778523.337814-.984319.22521-.205795.5902-.308692 1.094982-.308692h9.540322c.473718 0 .794056.071834.961022.215502.166966.143669.250448.42906.250448.856183v2.609319c0 .528079-.097072.90666-.291219 1.135753-.194146.229093-.508659.343638-.943548.343638-.450421 0-.774641-.116487-.97267-.349463-.19803-.232976-.297043-.609615-.297043-1.129928zm14.316308 0h-5.416667v2.982079h2.050179v-.139785c0-.442655.097072-.772699.291219-.990144.194147-.217444.489245-.326165.885305-.326165.349464 0 .634855.099014.856183.297043.221327.19803.331989.448476.331989.751344 0 .015532.003883.06601.011649.151434.007765.085425.011648.170848.011648.256273v2.41129c0 .520313-.093189.893069-.27957 1.118279-.186381.225211-.489245.337814-.908602.337814-.396059 0-.695041-.104838-.896953-.314516-.201913-.209678-.302868-.520309-.302868-.9319v-.209677h-2.050179v3.482975h5.416667v-1.386201c0-.520313.099013-.893069.297043-1.118279.19803-.225211.52225-.337814.97267-.337814.442655 0 .759109.110662.949373.331989s.285394.596025.285394 1.124104v2.818997c0 .419356-.08154.698924-.244623.838709-.163084.139786-.485362.209678-.966846.209678h-9.540323c-.512547 0-.879479-.100955-1.100806-.302868-.221328-.201912-.33199-.531957-.33199-.990143 0-.411591.104838-.724163.314516-.937724.209679-.213562.516426-.320341.920251-.320341h.198029v-8.689964h-.198029c-.396059 0-.700865-.110662-.914426-.331989-.213562-.221327-.320341-.537782-.320341-.949373 0-.45042.112604-.778523.337814-.984319.22521-.205795.590201-.308692 1.094982-.308692h9.540323c.473718 0 .794055.071834.961021.215502.166966.143669.250448.42906.250448.856183v2.609319c0 .528079-.097072.90666-.291218 1.135753-.194147.229093-.50866.343638-.943549.343638-.45042 0-.77464-.116487-.97267-.349463s-.297043-.609615-.297043-1.129928zm14.910394.09319h-2.434588v8.689964h1.95699c.520313 0 .893069.100955 1.118279.302867.22521.201913.337814.528074.337814.978495 0 .458186-.112604.788231-.337814.990143-.22521.201913-.597966.302868-1.118279.302868h-6.919355c-.512548 0-.881421-.100955-1.106631-.302868-.22521-.201912-.337814-.531957-.337814-.990143s.110662-.786289.33199-.984319c.221327-.19803.592142-.297043 1.112455-.297043h1.956989v-8.689964h-2.434588l-.069892 2.364695v.291219c0 .372761-.102897.663977-.308692.873656-.205796.209678-.491187.314516-.856183.314516-.434889 0-.755226-.110662-.961021-.33199-.205796-.221327-.308692-.572727-.308692-1.054211v-.09319l.128136-3.482975c.023298-.691162.118428-1.10663.285394-1.246416.166967-.139785.506718-.209677 1.019266-.209677h10.017921c.512547 0 .852299.069892 1.019265.209677.166966.139786.265979.555254.297043 1.246416l.116487 3.482975v.09319c0 .48925-.097071.842592-.291218 1.060036s-.50866.326165-.943549.326165c-.419357 0-.720279-.106779-.902777-.320341-.182498-.213561-.281512-.599907-.297043-1.15905zm-205.938172 34.769713v2.387993h1.199821c.504781 0 .863947.097072 1.077509.291218.213561.194147.32034.516426.32034.966846 0 .458187-.10872.788231-.326165.990144-.217444.201912-.574668.302867-1.071684.302867h-4.030466c-.512547 0-.879479-.100955-1.100807-.302867-.221327-.201913-.331989-.531957-.331989-.990144 0-.411591.104838-.724162.314516-.937724.209679-.213561.516426-.32034.920251-.32034h.198029v-8.689964h-.198029c-.396059 0-.700865-.110662-.914426-.33199-.213562-.221327-.320341-.537781-.320341-.949372 0-.450421.112604-.778524.337814-.984319.22521-.205796.5902-.308692 1.094982-.308692h4.810932c1.902638 0 3.341243.36499 4.31586 1.094982s1.461918 1.805548 1.461918 3.226702c0 1.498813-.48536 2.632613-1.456094 3.401434-.970733.768821-2.41128 1.153226-4.321684 1.153226zm0-6.301971v3.681003h1.654122c.916373 0 1.605583-.155315 2.067652-.46595.46207-.310634.693101-.77658.693101-1.397849 0-.58244-.238797-1.030912-.716398-1.34543s-1.159046-.471774-2.044355-.471774zm13.990143 0v2.679211h3.80914v-2.679211h-.18638c-.419357 0-.739694-.108721-.961021-.326165-.221327-.217445-.331989-.53584-.331989-.955197 0-.458187.114544-.788231.343638-.990144.229093-.201912.607673-.302867 1.135752-.302867h3.005377c.528079 0 .902776.100955 1.124104.302867.221327.201913.331989.531957.331989.990144 0 .419357-.106779.737752-.320341.955197-.213561.217444-.526133.326165-.937724.326165h-.198028v8.689964h.198028c.419357 0 .737753.106779.955197.32034.217445.213562.326165.526133.326165.937724 0 .458187-.112603.788231-.337813.990144-.225211.201912-.605732.302867-1.141577.302867h-3.005377c-.535845 0-.916367-.099013-1.141577-.297043s-.337813-.530016-.337813-.995968c0-.411591.110662-.724162.331989-.937724.221327-.213561.541664-.32034.961021-.32034h.18638v-3.43638h-3.80914v3.43638h.18638c.419357 0 .739695.106779.961022.32034.221327.213562.331989.526133.331989.937724 0 .458187-.114545.788231-.343638.990144-.229093.201912-.607673.302867-1.135753.302867h-3.005376c-.535845 0-.916367-.099013-1.141577-.297043s-.337814-.530016-.337814-.995968c0-.411591.108721-.724162.326165-.937724.217445-.213561.535841-.32034.955197-.32034h.198029v-8.689964h-.198029c-.411591 0-.724162-.108721-.937724-.326165-.213561-.217445-.32034-.53584-.32034-.955197 0-.458187.110662-.788231.331989-.990144.221327-.201912.596025-.302867 1.124104-.302867h3.005376c.520314 0 .896953.100955 1.129929.302867.232976.201913.349462.531957.349462.990144 0 .419357-.110662.737752-.331989.955197-.221327.217444-.541665.326165-.961022.326165zm16.215054-.256273c-1.001797 0-1.788079.403819-2.358871 1.21147-.570791.80765-.856183 1.929801-.856183 3.366487s.287333 2.56272.862008 3.378136c.574674.815417 1.359015 1.223119 2.353046 1.223119 1.001797 0 1.790021-.405761 2.364696-1.217294.574674-.811534.862007-1.939509.862007-3.383961 0-1.436686-.285392-2.558837-.856183-3.366487-.570791-.807651-1.360957-1.21147-2.37052-1.21147zm0-2.702509c1.910404 0 3.482969.683387 4.717742 2.050179 1.234773 1.366793 1.852151 3.110205 1.852151 5.230287 0 2.135614-.613495 3.882909-1.840502 5.241936s-2.803455 2.03853-4.729391 2.03853c-1.902638 0-3.475203-.685327-4.717742-2.056003s-1.863799-3.112146-1.863799-5.224463c0-2.127848.615436-3.873201 1.846326-5.236111s2.80928-2.044355 4.735215-2.044355zm17.659498 2.842294h-5.416666v2.982079h2.050179v-.139785c0-.442654.097072-.772699.291219-.990143.194146-.217445.489245-.326165.885304-.326165.349464 0 .634856.099013.856183.297043s.331989.448475.331989.751344c0 .015532.003883.066009.011649.151434.007766.085424.011649.170847.011649.256272v2.41129c0 .520314-.093189.89307-.27957 1.11828s-.489245.337814-.908602.337814c-.39606 0-.695041-.104838-.896954-.314517-.201912-.209678-.302867-.520308-.302867-.931899v-.209678h-2.050179v3.482975h5.416666v-1.3862c0-.520314.099014-.89307.297043-1.11828.19803-.22521.52225-.337814.972671-.337814.442654 0 .759109.110662.949372.33199.190264.221327.285395.596024.285395 1.124104v2.818996c0 .419357-.081541.698924-.244624.83871-.163083.139785-.485362.209677-.966846.209677h-9.540322c-.512548 0-.87948-.100955-1.100807-.302867-.221327-.201913-.331989-.531957-.331989-.990144 0-.411591.104838-.724162.314516-.937724.209679-.213561.516426-.32034.920251-.32034h.198029v-8.689964h-.198029c-.396059 0-.700865-.110662-.914427-.33199-.213561-.221327-.32034-.537781-.32034-.949372 0-.450421.112603-.778524.337814-.984319.22521-.205796.5902-.308692 1.094982-.308692h9.540322c.473718 0 .794056.071833.961022.215502.166966.143668.250448.42906.250448.856182v2.609319c0 .52808-.097072.90666-.291219 1.135753s-.50866.343638-.943548.343638c-.450421 0-.774641-.116486-.972671-.349462-.198029-.232976-.297043-.609615-.297043-1.129929zm13.675628 6.534946v-6.418458h-.640681c-.512548 0-.87948-.100955-1.100807-.302868-.221327-.201912-.331989-.528074-.331989-.978494 0-.450421.110662-.778524.331989-.984319.221327-.205796.588259-.308692 1.100807-.308692h3.308243c.504782 0 .869772.102896 1.094982.308692.225211.205795.337814.533898.337814.984319 0 .411591-.106779.728045-.32034.949372-.213562.221328-.518368.33199-.914427.33199h-.198029v10.577061c0 .364995-.038828.594085-.116487.687276-.077659.09319-.252388.139785-.524194.139785h-1.164874c-.372762 0-.634856-.038829-.78629-.116488-.151435-.077659-.281511-.213559-.390233-.407706l-4.845879-8.515233v6.325269h.675628c.504781 0 .865889.097072 1.083333.291218.217444.194147.326165.516426.326165.966846 0 .458187-.110662.788231-.331989.990144-.221328.201912-.580494.302867-1.077509.302867h-3.34319c-.504782 0-.869772-.100955-1.094982-.302867-.225211-.201913-.337814-.531957-.337814-.990144 0-.411591.104838-.724162.314516-.937724.209679-.213561.520309-.32034.9319-.32034h.18638v-8.689964h-.18638c-.39606 0-.702807-.110662-.920251-.33199-.217444-.221327-.326165-.537781-.326165-.949372 0-.450421.114545-.778524.343638-.984319.229093-.205796.592142-.308692 1.089158-.308692h1.910394c.458186 0 .768816.060184.9319.180555.163083.120371.345578.363051.547491.728047zm13.116487-6.418458v8.689964h1.956989c.528079 0 .90666.099013 1.135753.297043.229093.198029.343638.518367.343638.961021 0 .450421-.116486.778524-.349462.984319-.232976.205796-.609615.308692-1.129929.308692h-6.919354c-.52808 0-.90666-.100955-1.135753-.302867-.229093-.201913-.343638-.531957-.343638-.990144 0-.45042.112603-.772699.337813-.966846.225211-.194146.605733-.291218 1.141578-.291218h1.956989v-8.689964h-1.956989c-.52808 0-.90666-.100955-1.135753-.302868-.229093-.201912-.343638-.528074-.343638-.978494 0-.458187.112603-.784348.337813-.978495.225211-.194147.605733-.291219 1.141578-.291219h6.919354c.551377 0 .935782.097072 1.153226.291219.217445.194147.326165.520308.326165.978495 0 .45042-.112603.776582-.337814.978494-.22521.201913-.605732.302868-1.141577.302868zm11.33423 0 1.584229 2.22491 1.525986-2.22491c-.380528-.031064-.667861-.155316-.862008-.37276-.194146-.217445-.291218-.520309-.291218-.908602 0-.458187.112603-.788231.337813-.990144.225211-.201912.597967-.302867 1.11828-.302867h2.609319c.520313 0 .895011.100955 1.124104.302867.229093.201913.343638.531957.343638.990144 0 .427122-.110662.74746-.331989.961021-.221328.213562-.553314.320341-.995968.320341h-.337814l-2.912186 4.042114 3.43638 4.624552h.291218c.442655 0 .774641.106779.995968.320341.221327.213561.331989.533899.331989.961021 0 .458187-.114544.788231-.343638.990144-.229093.201912-.607673.302867-1.135752.302867h-3.121864c-.528079 0-.90666-.100955-1.135753-.302867-.229093-.201913-.343638-.531957-.343638-.990144 0-.419357.100955-.731928.302868-.937724.201912-.205795.516425-.32034.943548-.343638l-1.793907-2.59767-1.840502 2.59767c.450421.007766.782407.118428.995968.33199.213562.213561.320341.530015.320341.949372 0 .458187-.114545.788231-.343638.990144-.229093.201912-.607674.302867-1.135753.302867h-2.714158c-.528079 0-.902776-.100955-1.124104-.302867-.221327-.201913-.331989-.531957-.331989-.990144 0-.427122.110662-.74746.331989-.961021.221328-.213562.553314-.320341.995968-.320341h.291219l3.191756-4.368279-3.098566-4.298387h-.27957c-.450421 0-.786289-.106779-1.007617-.320341-.221327-.213561-.331989-.533899-.331989-.961021 0-.458187.114545-.788231.343638-.990144.229093-.201912.607674-.302867 1.135753-.302867h2.982079c.528079 0 .906659.100955 1.135752.302867.229093.201913.343638.531957.343638.990144 0 .396059-.100954.702806-.302867.920251-.201913.217444-.500894.337813-.896953.361111zm15.201612 7.210573h2.772402c.124254 0 .223267.023297.297043.069893.073776.046595.110663.108721.110663.18638 0 .038829-.009707.087365-.029122.145609s-.044653.122311-.075717.192204l-3.482975 6.826165c-.054361.124254-.132018.223267-.232975.297043-.100956.073776-.213559.110663-.337813.110663-.031064 0-.067951-.005824-.110663-.017473-.042713-.011649-.083483-.021356-.122312-.029122l-.885305-.314516c-.13202-.046595-.232974-.110663-.302867-.192204-.069893-.081542-.104839-.168907-.104839-.262097 0-.085425.001942-.149492.005825-.192204.003882-.042713.009707-.083483.017473-.122312l1.654121-6.057348c.069893-.264039.161141-.436827.273746-.518369s.297042-.122312.553315-.122312zm35.097671 1.479391h.198028c.419357 0 .737753.106779.955197.32034.217445.213562.326165.526133.326165.937724 0 .458187-.114544.788231-.343638.990144-.229093.201912-.607673.302867-1.135752.302867h-3.506273c-.535845 0-.916367-.099013-1.141577-.297043s-.337813-.530016-.337813-.995968c0-.45042.112603-.772699.337813-.966846.22521-.194146.605732-.291218 1.141577-.291218h.407706l-.477598-1.362903h-5.032258l-.500896 1.362903h.407706c.528079 0 .906659.099013 1.135752.297043.229094.198029.343638.518367.343638.961021 0 .458187-.114544.788231-.343638.990144-.229093.201912-.607673.302867-1.135752.302867h-3.005377c-.535845 0-.916366-.100955-1.141577-.302867-.22521-.201913-.337813-.531957-.337813-.990144 0-.411591.10872-.724162.326165-.937724.217444-.213561.53584-.32034.955197-.32034h.198028l3.121864-8.689964h-.931899c-.52808 0-.90666-.100955-1.135753-.302868-.229093-.201912-.343638-.528074-.343638-.978494 0-.458187.114545-.788231.343638-.990144.229093-.201912.607673-.302867 1.135753-.302867h4.368279c.691163 0 1.176522.372756 1.456093 1.118279v.034947zm-6.103943-8.689964-1.689068 4.91577h3.378136zm13.023298 8.666666h3.913978v-1.887096c0-.512548.106779-.887245.320341-1.124104.213561-.236859.553313-.355287 1.019265-.355287.411591 0 .720279.110662.926075.331989s.308692.557196.308692 1.007617v.139785l-.116488 3.005376c-.031063.691162-.133959 1.10663-.308691 1.246416-.174732.139785-.533899.209677-1.077509.209677h-7.699821c-.39606 0-.710573-.100955-.943549-.302867-.232976-.201913-.349462-.473714-.349462-.815413 0-.170849.029122-.34752.087366-.530017.058244-.182498.13396-.347521.22715-.495072l6.278674-9.120968h-3.611111l-.069893 1.654122c-.023297.535845-.137842.916367-.343638 1.141577-.205795.22521-.537781.337814-.995967.337814-.411591 0-.72028-.112604-.926076-.337814-.205795-.22521-.308691-.559138-.308691-1.001792v-.139785l.116487-2.772401c.031064-.683397.126194-1.09304.285394-1.228943.159201-.135903.526133-.203853 1.100807-.203853h7.420251c.396059 0 .708631.102896.937724.308692.229093.205795.343638.475655.343638.809587 0 .178615-.02718.363052-.081541.553316-.054362.190264-.128136.359169-.221327.50672zm30.158602-3.681003c-.71446 0-1.289126.198026-1.724015.594086-.434888.396059-.652329.92413-.652329 1.584229 0 .629036.221324 1.1474.663978 1.555108.442655.407708 1.013437.611559 1.712366.611559.722226 0 1.300774-.198027 1.735663-.594086.434888-.39606.652329-.920248.652329-1.572581 0-.644567-.221323-1.168755-.663978-1.572581-.442655-.403825-1.01732-.605734-1.724014-.605734zm2.655914-1.281362c.877543.3184 1.553163.788228 2.026881 1.409498.473718.621269.710574 1.343484.710574 2.166667 0 1.281368-.497008 2.325862-1.49104 3.133512-.994031.807651-2.294794 1.21147-3.902329 1.21147-1.576472 0-2.867528-.403819-3.873208-1.21147-1.00568-.80765-1.508513-1.836612-1.508513-3.086917 0-.838714.236856-1.570636.710574-2.195789.473718-.625152 1.149338-1.100805 2.026881-1.426971-.854245-.372762-1.496861-.84259-1.927867-1.409498-.431006-.566909-.646505-1.234764-.646505-2.003585 0-1.195944.487301-2.182194 1.461917-2.958781.974617-.776587 2.226844-1.164875 3.756721-1.164875 1.529876 0 2.787928.392171 3.774193 1.176524.986266.784352 1.479391 1.76672 1.479391 2.947132 0 .768821-.219383 1.440559-.658154 2.015233-.438772.574675-1.085271 1.04062-1.939516 1.39785zm-2.655914-5.346774c-.652333 0-1.192053.194143-1.619176.582437-.427123.388293-.640681.877536-.640681 1.467742s.213558 1.079448.640681 1.467742c.427123.388293.966843.582437 1.619176.582437.667864 0 1.209526-.18832 1.625-.564964.415474-.376645.623208-.871712.623208-1.485215 0-.590206-.209676-1.079449-.629033-1.467742-.419357-.388294-.959076-.582437-1.619175-.582437zm12.196236.792114v2.69086c.504782-.147551.962961-.256272 1.374552-.326164.411591-.069893.795996-.104839 1.153226-.104839 1.397856 0 2.527773.460121 3.389785 1.380376.862011.920256 1.293011 2.129772 1.293011 3.628584 0 1.69296-.528071 2.984016-1.58423 3.873208-1.056158.889192-2.589894 1.333782-4.601254 1.333782-1.444452 0-2.541364-.159198-3.290771-.477599-.749406-.318401-1.124104-.788229-1.124104-1.409498 0-.372762.132018-.693099.396058-.961022.264039-.267922.578552-.401881.943548-.401881.22521 0 .712511.112603 1.461918.337813.749406.22521 1.392022.337814 1.927867.337814.877543 0 1.557047-.227148 2.03853-.681452.481484-.454303.722223-1.096919.722223-1.927867 0-.80765-.227149-1.450267-.681452-1.927867-.454303-.477601-1.069739-.716398-1.846326-.716398-.497016 0-1.087213.159198-1.770609.477598-.683397.318401-1.149342.477599-1.39785.477599-.442654 0-.757167-.122311-.943548-.366936s-.27957-.662034-.27957-1.25224v-5.637993c0-.419357.056302-.683392.168907-.792114.112605-.108723.304807-.163083.576613-.163083h7.629928c.481484 0 .817353.095131 1.007616.285394.190264.190264.285395.533899.285395 1.030914 0 .48925-.093189.82706-.27957 1.013441s-.524191.27957-1.013441.27957zm18.206989 9.610215h1.887097c.520313 0 .896952.097072 1.129929.291219.232976.194147.349462.512542.349462.955197 0 .434889-.112603.749402-.337814.943548-.22521.194147-.605732.291219-1.141577.291219h-6.87276c-.535845 0-.916366-.097072-1.141577-.291219-.22521-.194146-.337813-.508659-.337813-.943548 0-.442655.114545-.76105.343638-.955197s.607673-.291219 1.135752-.291219h2.166667v-9.831541l-1.304659.337814c-.201913.046595-.368877.081541-.500896.104838-.13202.023298-.229092.034947-.291219.034947-.318401 0-.564963-.100955-.739695-.302868-.174733-.201912-.262097-.489245-.262097-.862007 0-.271805.097072-.500895.291218-.687276.194147-.186381.493129-.330047.896954-.431004l2.888889-.792114c.240742-.062127.438768-.108722.594086-.139785.155317-.031064.283452-.046595.384408-.046595.310635 0 .531959.085423.663979.256272s.198028.458182.198028.862007zm10.996416-.139785h4.077061v-.069892c0-.396059.106779-.691158.320341-.885305.213561-.194147.530016-.291218.949372-.291218.341699 0 .605734.09513.792115.285394s.27957.460124.27957.809588v.151433l-.09319 1.805556c-.015532.35723-.071833.582437-.168907.675627-.097073.093191-.269861.139785-.518369.139785h-8.375448c-.45042 0-.797938-.097072-1.042563-.291219-.244625-.194146-.366935-.469831-.366935-.827061 0-.295103.075716-.584377.22715-.867831.151435-.283454.394115-.584377.728047-.902778l4.741039-4.577957c.512548-.497015.895011-.994024 1.147402-1.491039.252391-.497016.378584-.994024.378584-1.49104 0-.698928-.168905-1.219233-.50672-1.560932-.337816-.341698-.852297-.512544-1.543459-.512544-.403825 0-.762991.060184-1.077509.180555s-.557198.289276-.728047.506721c-.09319.108722-.205794.275685-.337813.500896-.372762.605737-.784347.908602-1.234767.908602-.388294 0-.681451-.128135-.879481-.384409-.198029-.256273-.297043-.636795-.297043-1.141577 0-.520313.062126-.908601.18638-1.164874.124254-.256274.372758-.512544.74552-.768818.605738-.403825 1.244471-.702806 1.916219-.896953.671747-.194147 1.399787-.291219 2.184139-.291219 1.46775 0 2.630671.396054 3.4888 1.188172.858128.792119 1.287186 1.856027 1.287186 3.191757 0 .893075-.223265 1.749249-.669803 2.568548-.446537.819299-1.139631 1.636645-2.079301 2.452061zm17.997312-5.370071c.893075.279571 1.557047.720277 1.991936 1.322132.434888.601855.652329 1.384255.652329 2.347222 0 1.452218-.491184 2.603491-1.473566 3.453854-.982382.850362-2.320033 1.275537-4.012993 1.275537-1.366793 0-2.49671-.225207-3.389785-.675627s-1.339606-.997906-1.339606-1.642473c0-.380528.122311-.689216.366936-.926075s.568845-.355287.97267-.355287c.194147 0 .687272.174729 1.479391.524193s1.491036.524194 2.096774.524194c.729992 0 1.291067-.196085 1.683244-.588262.392176-.392176.588261-.953252.588261-1.683243 0-.784353-.165022-1.343487-.495071-1.67742-.33005-.333932-.961017-.52031-1.892921-.55914-.48925-.015531-.817353-.110662-.984319-.285394-.166967-.174732-.250448-.487303-.250448-.937724 0-.621269.333927-.978494 1.001792-1.071684.09319-.007766.163082-.015532.209677-.023298.838714-.116488 1.382317-.316456 1.630825-.59991.248507-.283455.372759-.743575.372759-1.380377 0-.551376-.14949-.980434-.448476-1.287186s-.720278-.460126-1.263889-.460126c-.574675 0-1.219232.180554-1.933692.541667s-1.207585.541667-1.479391.541667c-.302869 0-.545548-.099014-.728046-.297043-.182498-.19803-.273746-.448475-.273746-.751344 0-.660099.45818-1.226999 1.374552-1.700717.916373-.473718 2.04629-.710574 3.389785-.710574 1.351261 0 2.42876.349459 3.232527 1.048387.803767.698929 1.205645 1.626936 1.205645 2.784051 0 .761055-.184436 1.403671-.553315 1.927867s-.945486.964903-1.729839 1.322133z" fill="#000"/><path d="m63.7590232 61.7641134v4.1003584c0 .6403855-.0418156 1.1039412-.125448 1.390681-.0836325.2867398-.223416.5424122-.4193549.7670251-.2532868.2915187-.6045377.5113493-1.0537634.6594982s-.9892442.2222222-1.6200717.2222222c-.4444467 0-.8733551-.0430103-1.2867383-.1290323-.4133832-.0860219-.8112287-.2150529-1.1935484-.3870967-.2102759-.09558-.34767-.219832-.4121864-.3727599-.0645165-.1529279-.0967742-.401432-.0967742-.7455197v-1.4767025c0-.4109937.0597366-.6977292.1792115-.8602151.1194749-.1624858.3273581-.2437276.6236559-.2437276.4253307 0 .659498.3130196.7025089.9390681.004779.109917.0119474.1935481.0215054.2508961.057348.5543636.1863789.9330934.3870968 1.1362007.2007178.2031074.5209058.3046595.9605735.3046595.5448056 0 .9283143-.1445625 1.1505376-.4336918.2222233-.2891292.3333333-.8160057.3333333-1.5806451v-3.5412186h-1.204301c-.3249718 0-.5579444-.0621261-.6989248-.18638s-.2114695-.3249687-.2114695-.6021505c0-.2819608.0680997-.4826756.2043011-.6021506.1362014-.1194749.3715634-.1792114.7060932-.1792114h3.6559139c.3345298 0 .5698918.0597365.7060932.1792114.1362014.119475.2043011.3201898.2043011.6021506 0 .2771818-.0704891.4778966-.2114695.6021505s-.373953.18638-.6989248.18638zm6.2222222-.1577061c-.6164905 0-1.1003566.248504-1.4516129.7455197-.3512562.4970156-.5268817 1.1875702-.5268817 2.0716846 0 .8841143.1768202 1.5770584.530466 2.078853.3536457.5017946.8363171.7526882 1.4480286.7526882.6164906 0 1.1015514-.2496988 1.4551972-.749104.3536457-.4994051.5304659-1.1935439.5304659-2.0824372 0-.8841144-.1756255-1.574669-.5268817-2.0716846-.3512562-.4970157-.8375118-.7455197-1.4587814-.7455197zm0-1.6630825c1.1756331 0 2.1433654.4205454 2.9032258 1.2616488.7598605.8411033 1.139785 1.9139719 1.139785 3.218638 0 1.314224-.3775351 2.389482-1.1326165 3.2258064s-1.7252032 1.2544803-2.9103943 1.2544803c-1.1708541 0-2.1385863-.4217401-2.9032258-1.265233-.7646394-.8434928-1.1469534-1.9151667-1.1469534-3.2150537 0-1.3094451.3787298-2.3835084 1.1362007-3.2222223.757471-.8387138 1.7287874-1.2580645 2.9139785-1.2580645zm7.6415771 1.8207886v1.6487455h2.344086v-1.6487455h-.1146953c-.2580658 0-.4551965-.066905-.5913979-.2007169s-.2043011-.3297478-.2043011-.5878136c0-.2819608.0704892-.4850651.2114696-.609319s.373953-.1863799.6989247-.1863799h1.8494624c.3249717 0 .5555549.062126.6917563.1863799.1362013.1242539.204301.3273582.204301.609319 0 .2580658-.0657102.4540017-.1971326.5878136s-.3237741.2007169-.5770609.2007169h-.1218638v5.3476702h.1218638c.2580658 0 .4540017.0657102.5878136.1971326s.2007168.3237741.2007168.5770609c0 .2819608-.0692944.4850651-.2078853.609319-.1385909.124254-.3727582.18638-.7025089.18638h-1.8494624c-.3297507 0-.5639181-.0609313-.7025089-.1827957-.1385909-.1218644-.2078854-.3261635-.2078854-.6129033 0-.2532868.0680997-.4456385.2043011-.5770609s.3333321-.1971326.5913979-.1971326h.1146953v-2.1146953h-2.344086v2.1146953h.1146953c.2580658 0 .4551965.0657102.5913979.1971326s.2043011.3237741.2043011.5770609c0 .2819608-.0704892.4850651-.2114696.609319-.1409804.124254-.373953.18638-.6989247.18638h-1.8494624c-.3297507 0-.563918-.0609313-.7025089-.1827957s-.2078853-.3261635-.2078853-.6129033c0-.2532868.0669049-.4456385.2007168-.5770609s.3297478-.1971326.5878136-.1971326h.1218638v-5.3476702h-.1218638c-.2532868 0-.4456385-.066905-.5770609-.2007169s-.1971326-.3297478-.1971326-.5878136c0-.2819608.0680997-.4850651.2043011-.609319s.3667845-.1863799.6917562-.1863799h1.8494624c.3201928 0 .5519706.062126.6953405.1863799s.2150538.3273582.2150538.609319c0 .2580658-.0680997.4540017-.2043011.5878136s-.3333321.2007169-.5913979.2007169zm11.6415771 3.9498207v-3.9498207h-.3942653c-.3154137 0-.5412179-.0621261-.6774193-.18638s-.2043011-.3249687-.2043011-.6021505.0680997-.4790914.2043011-.6057348.3620056-.1899641.6774193-.1899641h2.0358423c.3106348 0 .5352442.0633207.6738351.1899641s.2078853.328553.2078853.6057348c0 .2532868-.0657102.448028-.1971326.5842294s-.3189952.2043011-.562724.2043011h-.1218638v6.5089605c0 .2246129-.0238946.3655911-.0716846.4229391-.0477899.0573479-.1553157.0860215-.3225806.0860215h-.7168459c-.2293918 0-.3906805-.0238946-.483871-.0716846-.0931904-.04779-.1732374-.1314211-.2401433-.250896l-2.9820789-5.2401434v3.8924731h.4157706c.3106348 0 .5328548.0597366.6666667.1792115s.2007168.3178003.2007168.594982c0 .2819608-.0680996.4850651-.204301.609319-.1362014.124254-.3572267.18638-.6630825.18638h-2.0573476c-.3106348 0-.5352443-.062126-.6738352-.18638-.1385909-.1242539-.2078853-.3273582-.2078853-.609319 0-.2532868.0645155-.4456385.1935484-.5770609s.3201899-.1971326.5734767-.1971326h.1146954v-5.3476702h-.1146954c-.2437288 0-.4324963-.0680997-.5663082-.2043011s-.2007169-.3309426-.2007169-.5842294c0-.2771818.0704892-.4790914.2114696-.6057348.1409803-.1266434.3643951-.1899641.6702509-.1899641h1.1756272c.2819608 0 .4731178.0370366.5734767.1111111.1003589.0740744.2126636.2234158.3369176.4480286zm17.7491034-5.3691756c.071685-.1529279.152927-.2580642.243728-.3154122.090801-.0573479.22939-.0860215.415771-.0860215.277181 0 .455196.0513735.53405.1541219.078853.1027484.123058.3070474.132616.6129032l.028674 1.3763441v.078853c0 .2819608-.056152.4790915-.168459.5913979-.112306.1123064-.302268.1684588-.569892.1684588-.339309 0-.592592-.1815992-.759857-.5448029-.023895-.052569-.04301-.0955793-.057347-.1290323-.148149-.2962977-.348864-.5197125-.602151-.6702508-.253287-.1505384-.551969-.2258065-.896057-.2258065-.43011 0-.777777.0991627-1.043011.297491-.265234.1983284-.397849.4528061-.397849.7634409 0 .4396677.606923.7861397 1.820788 1.0394265.205497.043011.36798.0764635.487455.1003584.917568.2007179 1.581838.5065691 1.992832.9175628s.616487.9725173.616487 1.6845878c0 .8793353-.298683 1.5567479-.896057 2.032258-.597375.4755102-1.452802.7132617-2.566308.7132617-.434889 0-.823177-.0286736-1.164875-.0860215-.341698-.057348-.672639-.1457581-.992831-.265233-.076464.1242539-.164874.2138588-.265233.2688172-.100359.0549585-.238948.0824373-.415771.0824373-.301077 0-.511349-.0573471-.630824-.172043s-.181601-.3178002-.18638-.609319l-.028674-1.6845878v-.0788531c0-.3154137.058542-.5352443.175627-.6594982.117086-.1242539.321385-.1863799.612903-.1863799.310635 0 .571086.2246095.781362.6738351.04779.1099169.086022.1935481.114696.2508961.186381.3679827.445637.6427709.777777.8243727.332141.1816019.739544.2724015 1.222223.2724015.439667 0 .78136-.0907996 1.025089-.2724015.243729-.1816018.365592-.4372743.365592-.7670251 0-.5113526-.551966-.8984455-1.655914-1.1612903-.329751-.0764639-.590202-.1409794-.781362-.1935484-.927126-.2437288-1.569891-.5483852-1.928316-.9139785-.358424-.3655932-.537634-.8661855-.537634-1.5017921 0-.8172084.307046-1.4850631.921147-2.0035842s1.408597-.7777778 2.383512-.7777778c.324972 0 .643965.0334525.95699.1003584.313024.066906.624849.1672634.935483.3010753zm9.268818.0716846c.09558-.1720439.193548-.2939065.293907-.3655914.100358-.0716849.227-.1075269.379928-.1075269.234171 0 .400238.062126.498208.1863799.097969.124254.146953.3369161.146953.6379929l.014337 1.8637993c0 .3297507-.053763.5519707-.16129.6666666-.107528.1146959-.302269.172043-.58423.172043-.200718 0-.354838-.0477892-.462365-.1433691-.107528-.09558-.199522-.2724002-.275986-.530466-.124254-.4540046-.322579-.7801663-.594982-.9784946-.272403-.1983284-.649938-.297491-1.132617-.297491-.735965 0-1.299878.248504-1.691756.7455197-.391877.4970156-.587813 1.2162438-.587813 2.1577061 0 .9366833.198325 1.6559114.594982 2.1577061.396656.5017946.962959.7526881 1.698924.7526881.501795 0 1.054956-.1672623 1.659499-.5017921.604543-.3345297.985662-.5017921 1.143369-.5017921.186381 0 .34289.0788523.469534.2365591.126643.1577069.189964.3536428.189964.5878137 0 .4205516-.370367.8172024-1.111111 1.1899641-.740745.3727617-1.574667.5591398-2.501792.5591398-1.252097 0-2.265229-.413377-3.039427-1.2401434-.774197-.8267664-1.16129-1.9068033-1.16129-3.2401433 0-1.2855501.391872-2.3536398 1.175627-3.2043011.783756-.8506614 1.777772-1.2759857 2.982079-1.2759857.339309 0 .673834.0382314 1.003584.1146954.329751.0764639.681002.195937 1.053764.3584229zm5.390681 1.3476703v1.6487455h2.344086v-1.6487455h-.114696c-.258065 0-.455196-.066905-.591397-.2007169-.136202-.1338119-.204302-.3297478-.204302-.5878136 0-.2819608.07049-.4850651.21147-.609319s.373953-.1863799.698925-.1863799h1.849462c.324972 0 .555555.062126.691756.1863799.136202.1242539.204301.3273582.204301.609319 0 .2580658-.06571.4540017-.197132.5878136-.131423.1338119-.323774.2007169-.577061.2007169h-.121864v5.3476702h.121864c.258066 0 .454002.0657102.587814.1971326.133811.1314224.200716.3237741.200716.5770609 0 .2819608-.069294.4850651-.207885.609319-.138591.124254-.372758.18638-.702509.18638h-1.849462c-.329751 0-.563918-.0609313-.702509-.1827957s-.207886-.3261635-.207886-.6129033c0-.2532868.0681-.4456385.204302-.5770609.136201-.1314224.333332-.1971326.591397-.1971326h.114696v-2.1146953h-2.344086v2.1146953h.114695c.258066 0 .455196.0657102.591398.1971326.136201.1314224.204301.3237741.204301.5770609 0 .2819608-.070489.4850651-.21147.609319-.14098.124254-.373953.18638-.698924.18638h-1.849463c-.32975 0-.563918-.0609313-.702509-.1827957s-.207885-.3261635-.207885-.6129033c0-.2532868.066905-.4456385.200717-.5770609s.329748-.1971326.587814-.1971326h.121863v-5.3476702h-.121863c-.253287 0-.445639-.066905-.577061-.2007169-.131423-.1338119-.197133-.3297478-.197133-.5878136 0-.2819608.0681-.4850651.204301-.609319s.366785-.1863799.691756-.1863799h1.849463c.320192 0 .55197.062126.69534.1863799s.215054.3273582.215054.609319c0 .2580658-.0681.4540017-.204301.5878136-.136202.1338119-.333332.2007169-.591398.2007169zm11.641577 3.9498207v-3.9498207h-.394265c-.315414 0-.541218-.0621261-.67742-.18638-.136201-.1242539-.204301-.3249687-.204301-.6021505s.0681-.4790914.204301-.6057348c.136202-.1266434.362006-.1899641.67742-.1899641h2.035842c.310635 0 .535244.0633207.673835.1899641s.207885.328553.207885.6057348c0 .2532868-.06571.448028-.197132.5842294-.131423.1362014-.318996.2043011-.562724.2043011h-.121864v6.5089605c0 .2246129-.023895.3655911-.071685.4229391-.04779.0573479-.155316.0860215-.32258.0860215h-.716846c-.229392 0-.390681-.0238946-.483871-.0716846-.093191-.04779-.173238-.1314211-.240144-.250896l-2.982078-5.2401434v3.8924731h.41577c.310635 0 .532855.0597366.666667.1792115s.200717.3178003.200717.594982c0 .2819608-.0681.4850651-.204301.609319-.136202.124254-.357227.18638-.663083.18638h-2.057348c-.310634 0-.535244-.062126-.673835-.18638-.138591-.1242539-.207885-.3273582-.207885-.609319 0-.2532868.064516-.4456385.193548-.5770609.129033-.1314224.32019-.1971326.573477-.1971326h.114695v-5.3476702h-.114695c-.243729 0-.432496-.0680997-.566308-.2043011s-.200717-.3309426-.200717-.5842294c0-.2771818.070489-.4790914.21147-.6057348.14098-.1266434.364395-.1899641.67025-.1899641h1.175628c.28196 0 .473117.0370366.573476.1111111.100359.0740744.212664.2234158.336918.4480286zm8.071684-3.9498207v5.3476702h1.204301c.324972 0 .557945.0609313.698925.1827957.140981.1218644.21147.3189951.21147.5913978 0 .2771818-.071684.4790914-.215054.6057348s-.375148.1899642-.695341.1899642h-4.258064c-.324972 0-.557944-.062126-.698925-.18638-.14098-.1242539-.211469-.3273582-.211469-.609319 0-.2771817.069294-.4755071.207885-.594982s.372758-.1792115.702509-.1792115h1.204301v-5.3476702h-1.204301c-.324972 0-.557944-.0621261-.698925-.18638-.14098-.1242539-.211469-.3249687-.211469-.6021505 0-.2819608.069294-.4826756.207885-.6021506.138591-.1194749.372758-.1792114.702509-.1792114h4.258064c.339309 0 .575866.0597365.709678.1792114.133812.119475.200717.3201898.200717.6021506 0 .2771818-.069295.4778966-.207886.6021505s-.372758.18638-.702509.18638zm10.308244-.014337h-1.498208v5.3476703h1.204301c.320193 0 .549581.062126.688172.1863799s.207886.3249688.207886.6021505c0 .2819608-.069295.4850651-.207886.609319-.138591.124254-.367979.18638-.688172.18638h-4.258064c-.315414 0-.542413-.062126-.681004-.18638-.138591-.1242539-.207885-.3273582-.207885-.609319 0-.2819607.0681-.4838703.204301-.6057347s.364395-.1827957.684588-.1827957h1.204301v-5.3476703h-1.498208l-.043011 1.4551972v.1792114c0 .2293919-.063321.4086015-.189964.5376344s-.302269.1935484-.526882.1935484c-.267623 0-.464754-.0680996-.591398-.204301-.126643-.1362014-.189964-.3524478-.189964-.6487456v-.0573476l.078853-2.1433692c.014337-.4253307.072879-.6810032.175628-.7670251.102748-.0860219.311826-.1290323.62724-.1290323h6.164874c.315414 0 .524492.0430104.62724.1290323.102749.0860219.16368.3416944.182796.7670251l.071685 2.1433692v.0573476c0 .3010768-.059737.5185179-.179212.6523298s-.313021.2007168-.580645.2007168c-.258066 0-.443249-.0657102-.555555-.1971326-.112307-.1314224-.173238-.3691739-.182796-.7132616zm8.810036 0h-1.498208v5.3476703h1.204301c.320193 0 .549581.062126.688172.1863799s.207885.3249688.207885.6021505c0 .2819608-.069294.4850651-.207885.609319-.138591.124254-.367979.18638-.688172.18638h-4.258064c-.315414 0-.542413-.062126-.681004-.18638-.138591-.1242539-.207885-.3273582-.207885-.609319 0-.2819607.068099-.4838703.204301-.6057347.136201-.1218644.364395-.1827957.684588-.1827957h1.204301v-5.3476703h-1.498208l-.043011 1.4551972v.1792114c0 .2293919-.063321.4086015-.189964.5376344-.126644.1290329-.302269.1935484-.526882.1935484-.267624 0-.464754-.0680996-.591398-.204301-.126643-.1362014-.189964-.3524478-.189964-.6487456v-.0573476l.078853-2.1433692c.014337-.4253307.072879-.6810032.175627-.7670251.102749-.0860219.311827-.1290323.627241-.1290323h6.164874c.315414 0 .524492.0430104.62724.1290323.102749.0860219.16368.3416944.182796.7670251l.071685 2.1433692v.0573476c0 .3010768-.059737.5185179-.179212.6523298s-.313021.2007168-.580645.2007168c-.258066 0-.443249-.0657102-.555556-.1971326-.112306-.1314224-.173237-.3691739-.182795-.7132616zm5.612903.014337v5.3476702h3.261649v-1.2759857c0-.3297507.058542-.563918.175627-.7025089.117086-.1385909.311827-.2078853.58423-.2078853.272402 0 .470728.0704891.594982.2114695s.18638.373953.18638.6989247v2.2007169c0 .2580658-.050179.4301071-.150538.516129-.100359.086022-.301074.1290323-.602151.1290323h-6.501792c-.310635 0-.532855-.062126-.666666-.18638-.133812-.1242539-.200717-.3273582-.200717-.609319 0-.2771817.06571-.4755071.197132-.594982.131423-.1194749.354837-.1792115.670251-.1792115h.630825v-5.3476702h-.630825c-.310635 0-.532855-.0621261-.666666-.18638-.133812-.1242539-.200717-.3249687-.200717-.6021505s.070489-.4790914.211469-.6057348c.140981-.1266434.364395-.1899641.670251-.1899641h3.053764c.305855 0 .52927.0633207.67025.1899641.140981.1266434.21147.328553.21147.6057348s-.069294.4778966-.207885.6021505-.363201.18638-.673835.18638zm13.197133 5.3476702h.121864c.258065 0 .454001.0657102.587813.1971326s.200717.3237741.200717.5770609c0 .2819608-.070489.4850651-.21147.609319-.14098.124254-.373952.18638-.698924.18638h-2.157706c-.329751 0-.563918-.0609313-.702509-.1827957s-.207886-.3261635-.207886-.6129033c0-.2771817.069295-.4755071.207886-.594982s.372758-.1792115.702509-.1792115h.250896l-.293907-.8387097h-3.096774l-.308244.8387097h.250896c.324972 0 .557944.0609313.698925.1827957.14098.1218644.211469.3189951.211469.5913978 0 .2819608-.070489.4850651-.211469.609319-.140981.124254-.373953.18638-.698925.18638h-1.849462c-.329751 0-.563918-.062126-.702509-.18638-.138591-.1242539-.207886-.3273582-.207886-.609319 0-.2532868.066905-.4456385.200717-.5770609s.329748-.1971326.587814-.1971326h.121864l1.921147-5.3476702h-.573477c-.324972 0-.557944-.0621261-.698925-.18638-.14098-.1242539-.211469-.3249687-.211469-.6021505 0-.2819608.070489-.4850651.211469-.609319.140981-.1242539.373953-.1863799.698925-.1863799h2.688172c.425331 0 .724013.2293883.896057.688172v.0215054zm-3.756273-5.3476702-1.039426 3.0250896h2.078853zm7.476703 0v3.7491039c0 .6642805.115889 1.1361993.34767 1.4157706s.61768.4193548 1.157706.4193548c.540027 0 .92712-.1409782 1.161291-.422939.23417-.2819608.351254-.7526849.351254-1.4121864v-3.7491039h-.114695c-.253287 0-.445639-.066905-.577061-.2007169-.131423-.1338119-.197133-.3297478-.197133-.5878136 0-.2819608.0681-.4850651.204301-.609319.136202-.1242539.364395-.1863799.684588-.1863799h1.792115c.324971 0 .555555.062126.691756.1863799s.204301.3273582.204301.609319c0 .2580658-.06571.4540017-.197133.5878136-.131422.1338119-.323774.2007169-.57706.2007169h-.121864v3.7204301c0 1.2043071-.259257 2.0752661-.777778 2.6129032s-1.353638.8064516-2.505376.8064516c-1.204308 0-2.068098-.2640356-2.591398-.7921147s-.784946-1.4038171-.784946-2.6272401v-3.7204301h-.121864c-.258066 0-.454002-.066905-.587814-.2007169s-.200717-.3297478-.200717-.5878136c0-.2819608.070489-.4850651.21147-.609319.14098-.1242539.373953-.1863799.698925-.1863799h1.849462c.320193 0 .55197.062126.69534.1863799s.215054.3273582.215054.609319c0 .2580658-.0681.4540017-.204301.5878136s-.333332.2007169-.591398.2007169zm12.537634-1.3476703c.09558-.1720439.193548-.2939065.293907-.3655914s.227001-.1075269.379928-.1075269c.234171 0 .400239.062126.498208.1863799.09797.124254.146954.3369161.146954.6379929l.014337 1.8637993c0 .3297507-.053763.5519707-.161291.6666666-.107527.1146959-.302268.172043-.584229.172043-.200718 0-.354838-.0477892-.462366-.1433691-.107527-.09558-.199521-.2724002-.275985-.530466-.124254-.4540046-.32258-.7801663-.594982-.9784946-.272403-.1983284-.649938-.297491-1.132617-.297491-.735965 0-1.299878.248504-1.691756.7455197-.391878.4970156-.587814 1.2162438-.587814 2.1577061 0 .9366833.198326 1.6559114.594982 2.1577061.396657.5017946.96296.7526881 1.698925.7526881.501795 0 1.054955-.1672623 1.659498-.5017921.604543-.3345297.985662-.5017921 1.143369-.5017921.186381 0 .342891.0788523.469534.2365591.126644.1577069.189965.3536428.189965.5878137 0 .4205516-.370367.8172024-1.111112 1.1899641-.740744.3727617-1.574666.5591398-2.501792.5591398-1.252097 0-2.265229-.413377-3.039426-1.2401434-.774198-.8267664-1.16129-1.9068033-1.16129-3.2401433 0-1.2855501.391871-2.3536398 1.175627-3.2043011.783755-.8506614 1.777772-1.2759857 2.982079-1.2759857.339308 0 .673833.0382314 1.003584.1146954.329751.0764639.681002.195937 1.053763.3584229zm5.390681 1.3476703v1.6487455h2.344086v-1.6487455h-.114695c-.258066 0-.455196-.066905-.591398-.2007169-.136201-.1338119-.204301-.3297478-.204301-.5878136 0-.2819608.070489-.4850651.21147-.609319.14098-.1242539.373953-.1863799.698924-.1863799h1.849463c.324971 0 .555555.062126.691756.1863799s.204301.3273582.204301.609319c0 .2580658-.06571.4540017-.197133.5878136-.131422.1338119-.323774.2007169-.577061.2007169h-.121863v5.3476702h.121863c.258066 0 .454002.0657102.587814.1971326s.200717.3237741.200717.5770609c0 .2819608-.069294.4850651-.207885.609319-.138591.124254-.372759.18638-.702509.18638h-1.849463c-.32975 0-.563918-.0609313-.702509-.1827957s-.207885-.3261635-.207885-.6129033c0-.2532868.0681-.4456385.204301-.5770609.136202-.1314224.333332-.1971326.591398-.1971326h.114695v-2.1146953h-2.344086v2.1146953h.114696c.258065 0 .455196.0657102.591397.1971326.136202.1314224.204302.3237741.204302.5770609 0 .2819608-.07049.4850651-.21147.609319-.14098.124254-.373953.18638-.698925.18638h-1.849462c-.329751 0-.563918-.0609313-.702509-.1827957s-.207885-.3261635-.207885-.6129033c0-.2532868.066905-.4456385.200716-.5770609.133812-.1314224.329748-.1971326.587814-.1971326h.121864v-5.3476702h-.121864c-.253287 0-.445638-.066905-.577061-.2007169-.131422-.1338119-.197132-.3297478-.197132-.5878136 0-.2819608.068099-.4850651.204301-.609319.136201-.1242539.366784-.1863799.691756-.1863799h1.849462c.320193 0 .551971.062126.695341.1863799s.215054.3273582.215054.609319c0 .2580658-.0681.4540017-.204302.5878136-.136201.1338119-.333332.2007169-.591397.2007169zm-138.7025087 20.9892473h1.1612903c.3201928 0 .5519707.0597365.6953405.1792114.1433699.1194749.2150538.3154109.2150538.5878137 0 .2676238-.0692944.4611702-.2078853.5806451s-.3727582.1792115-.702509.1792115h-4.2293906c-.3297508 0-.5639181-.0597366-.702509-.1792115s-.2078853-.3130213-.2078853-.5806451c0-.2724028.0704891-.4683388.2114695-.5878137s.373953-.1792114.6989248-.1792114h1.3333333v-6.0501792l-.8028674.2078853c-.1242539.0286739-.2270008.0501791-.3082437.0645161-.081243.014337-.1409795.0215054-.1792115.0215054-.1959388 0-.3476697-.0621261-.4551971-.18638s-.1612903-.3010741-.1612903-.5304659c0-.1672649.0597365-.3082432.1792114-.4229391s.3034635-.203106.5519714-.265233l1.7777777-.4874552c.1481489-.0382319.2700115-.0669055.3655914-.0860215.09558-.0191159.1744322-.0286738.2365592-.0286738.1911598 0 .3273592.0525682.4086021.1577061.081243.1051379.1218638.2819581.1218638.5304659zm7.7204301-6.1362008c-.5065736 0-.9068085.2771777-1.2007168.8315413-.2939083.5543635-.4408602 1.3189915-.4408602 2.2939068 0 .9892522.1457572 1.7622433.437276 2.3189964.2915187.5567531.6929484.8351254 1.204301.8351254s.9139771-.2783723 1.2078853-.8351254c.2939083-.5567531.4408602-1.3297442.4408602-2.3189964 0-.9749153-.1469519-1.7395433-.4408602-2.2939068-.2939082-.5543636-.6965327-.8315413-1.2078853-.8315413zm-.0143369-1.6129032c1.0991692 0 1.971323.4265191 2.6164875 1.2795699.6451645.8530509.9677419 2.0107454.9677419 3.4731183 0 1.4671519-.3225774 2.6272359-.9677419 3.4802867-.6451645.8530509-1.5173183 1.2795699-2.6164875 1.2795699-1.0896112 0-1.9534018-.426519-2.5913978-1.2795699-.6379961-.8530508-.9569893-2.0131348-.9569893-3.4802867s.3189932-2.6260412.9569893-3.4767025c.637996-.8506614 1.5017866-1.2759857 2.5913978-1.2759857zm8.8243728 1.6129032c-.5065736 0-.9068086.2771777-1.2007169.8315413-.2939083.5543635-.4408602 1.3189915-.4408602 2.2939068 0 .9892522.1457572 1.7622433.437276 2.3189964s.6929485.8351254 1.2043011.8351254.913977-.2783723 1.2078853-.8351254.4408602-1.3297442.4408602-2.3189964c0-.9749153-.1469519-1.7395433-.4408602-2.2939068-.2939083-.5543636-.6965327-.8315413-1.2078853-.8315413zm-.0143369-1.6129032c1.0991691 0 1.9713229.4265191 2.6164874 1.2795699.6451645.8530509.9677419 2.0107454.9677419 3.4731183 0 1.4671519-.3225774 2.6272359-.9677419 3.4802867-.6451645.8530509-1.5173183 1.2795699-2.6164874 1.2795699-1.0896112 0-1.9534019-.426519-2.5913979-1.2795699-.637996-.8530508-.9569892-2.0131348-.9569892-3.4802867s.3189932-2.6260412.9569892-3.4767025c.637996-.8506614 1.5017867-1.2759857 2.5913979-1.2759857zm17.6487455 5.6057348 1.3691756-4.0645161c.0860219-.2676238.2054951-.462365.3584229-.5842294.1529279-.1218644.3560322-.1827957.609319-.1827957h1.1182796c.324972 0 .557944.062126.698925.1863799.14098.1242539.211469.3273582.211469.609319 0 .2580658-.068099.4540017-.204301.5878136-.136201.1338119-.333332.2007169-.5913977.2007169h-.1146953l.200717 5.3476702h.121864c.258065 0 .451612.0657102.580645.1971326s.193548.3237741.193548.577061c0 .2819607-.068099.485065-.204301.609319-.136201.1242539-.366784.1863799-.691756.1863799h-1.6129034c-.3249717 0-.5555548-.0609313-.6917562-.1827957s-.2043011-.3261635-.2043011-.6129032c0-.2532869.0657102-.4456386.1971326-.577061s.3261636-.1971326.5842294-.1971326h.1146953l-.1003584-4.3727598-1.046595 3.2544802c-.0764639.2437289-.1851845.4193543-.3261649.5268818-.1409803.1075274-.3357215.1612903-.5842293.1612903-.2485079 0-.4456385-.0537629-.5913979-.1612903-.1457594-.1075275-.2568694-.2831529-.3333333-.5268818l-1.0394265-3.2544802-.1003585 4.3727598h.1146954c.2580658 0 .452807.0657102.5842294.1971326s.1971326.3237741.1971326.577061c0 .2819607-.0692944.485065-.2078853.609319-.1385909.1242539-.3679793.1863799-.6881721.1863799h-1.6200717c-.3201927 0-.5495811-.062126-.688172-.1863799-.1385909-.124254-.2078853-.3273583-.2078853-.609319 0-.2532869.0657102-.4456386.1971326-.577061s.3261636-.1971326.5842294-.1971326h.1146953l.2078853-5.3476702h-.1146953c-.2580658 0-.4551964-.066905-.5913978-.2007169s-.2043011-.3297478-.2043011-.5878136c0-.2819608.0704891-.4850651.2114695-.609319s.373953-.1863799.6989247-.1863799h1.1182796c.2485078 0 .4480279.0597365.5985663.1792114s.2735957.3154109.3691757.5878137zm12.4086021 2.1003584h.121864c.258066 0 .454002.0657102.587813.1971326.133812.1314224.200717.3237741.200717.577061 0 .2819607-.070489.485065-.211469.609319-.140981.1242539-.373953.1863799-.698925.1863799h-2.157706c-.329751 0-.563918-.0609313-.702509-.1827957s-.207885-.3261635-.207885-.6129032c0-.2771818.069294-.4755072.207885-.5949821s.372758-.1792115.702509-.1792115h.250896l-.293907-.8387097h-3.096774l-.308244.8387097h.250896c.324972 0 .557945.0609313.698925.1827957s.21147.3189951.21147.5913979c0 .2819607-.07049.485065-.21147.609319-.14098.1242539-.373953.1863799-.698925.1863799h-1.849462c-.329751 0-.563918-.062126-.702509-.1863799-.138591-.124254-.207885-.3273583-.207885-.609319 0-.2532869.066905-.4456386.200717-.577061.133811-.1314224.329747-.1971326.587813-.1971326h.121864l1.921147-5.3476702h-.573477c-.324972 0-.557944-.0621261-.698925-.18638-.14098-.1242539-.211469-.3249687-.211469-.6021505 0-.2819608.070489-.4850651.211469-.609319.140981-.1242539.373953-.1863799.698925-.1863799h2.688172c.425331 0 .724014.2293884.896058.688172v.0215054zm-3.756272-5.3476702-1.039427 3.0250896h2.078853zm9.878136 0v5.3476702h1.204301c.324972 0 .557944.0609313.698925.1827957.14098.1218644.211469.3189951.211469.5913979 0 .2771818-.071684.4790913-.215054.6057347-.143369.1266434-.375147.1899642-.69534.1899642h-4.258065c-.324971 0-.557944-.062126-.698924-.1863799-.140981-.124254-.21147-.3273583-.21147-.609319 0-.2771818.069295-.4755072.207885-.5949821.138591-.1194749.372759-.1792115.702509-.1792115h1.204301v-5.3476702h-1.204301c-.324971 0-.557944-.0621261-.698924-.18638-.140981-.1242539-.21147-.3249687-.21147-.6021505 0-.2819608.069295-.4826756.207885-.6021505.138591-.119475.372759-.1792115.702509-.1792115h4.258065c.339309 0 .575865.0597365.709677.1792115.133812.1194749.200717.3201897.200717.6021505 0 .2771818-.069294.4778966-.207885.6021505s-.372758.18638-.702509.18638zm9.548387 3.9498207v-3.9498207h-.394265c-.315414 0-.541218-.0621261-.67742-.18638-.136201-.1242539-.204301-.3249687-.204301-.6021505s.0681-.4790914.204301-.6057348c.136202-.1266434.362006-.1899641.67742-.1899641h2.035842c.310635 0 .535244.0633207.673835.1899641s.207885.328553.207885.6057348c0 .2532868-.06571.448028-.197132.5842294-.131423.1362014-.318995.2043011-.562724.2043011h-.121864v6.5089605c0 .2246129-.023895.3655911-.071685.4229391s-.155315.0860215-.32258.0860215h-.716846c-.229392 0-.390681-.0238946-.483871-.0716846-.093191-.0477899-.173238-.1314211-.240143-.250896l-2.982079-5.2401434v3.8924731h.41577c.310635 0 .532855.0597366.666667.1792115s.200717.3178003.200717.5949821c0 .2819607-.0681.485065-.204301.609319-.136202.1242539-.357227.1863799-.663083.1863799h-2.057347c-.310635 0-.535245-.062126-.673836-.1863799-.13859-.124254-.207885-.3273583-.207885-.609319 0-.2532869.064516-.4456386.193549-.577061.129032-.1314224.320189-.1971326.573476-.1971326h.114696v-5.3476702h-.114696c-.243729 0-.432496-.0680997-.566308-.2043011s-.200717-.3309426-.200717-.5842294c0-.2771818.070489-.4790914.21147-.6057348.14098-.1266434.364395-.1899641.670251-.1899641h1.175627c.281961 0 .473118.0370366.573477.1111111.100358.0740744.212663.2234158.336917.4480287zm17.749104-5.3691756c.071685-.1529279.152927-.2580642.243727-.3154122.090801-.0573479.22939-.0860215.415771-.0860215.277182 0 .455197.0513735.53405.1541219.078854.1027484.123059.3070474.132617.6129032l.028674 1.3763441v.0788531c0 .2819607-.056153.4790914-.168459.5913978-.112307.1123064-.302269.1684588-.569893.1684588-.339308 0-.592591-.1815992-.759856-.5448029-.023895-.0525689-.043011-.0955793-.057348-.1290322-.148149-.2962978-.348864-.5197126-.602151-.6702509-.253286-.1505384-.551969-.2258065-.896057-.2258065-.43011 0-.777776.0991627-1.043011.297491-.265234.1983284-.397849.4528061-.397849.7634409 0 .4396677.606923.7861397 1.820788 1.0394265.205497.043011.367981.0764635.487456.1003585.917567.2007178 1.581837.506569 1.992831.9175627s.616488.9725173.616488 1.6845878c0 .8793353-.298683 1.5567479-.896058 2.0322581-.597374.4755101-1.452802.7132616-2.566308.7132616-.434889 0-.823176-.0286735-1.164875-.0860215-.341698-.057348-.672638-.1457581-.992831-.265233-.076464.1242539-.164874.2138588-.265233.2688172-.100359.0549585-.238948.0824373-.415771.0824373-.301076 0-.511349-.0573471-.630824-.172043s-.181601-.3178002-.18638-.609319l-.028674-1.6845878v-.0788531c0-.3154137.058542-.5352443.175627-.6594982.117086-.1242539.321385-.1863799.612904-.1863799.310634 0 .571086.2246095.781362.6738351.04779.1099169.086021.1935481.114695.2508961.186381.3679827.445638.6427709.777778.8243727.33214.1816019.739543.2724015 1.222222.2724015.439668 0 .781361-.0907996 1.02509-.2724015.243728-.1816018.365591-.4372743.365591-.767025 0-.5113527-.551966-.8984456-1.655914-1.1612904-.329751-.0764639-.590202-.1409794-.781362-.1935484-.927125-.2437288-1.569891-.5483852-1.928315-.9139784-.358425-.3655933-.537635-.8661856-.537635-1.5017922 0-.8172084.307046-1.4850631.921147-2.0035842s1.408597-.7777778 2.383513-.7777778c.324972 0 .643965.0334525.956989.1003585.313024.0669059.624849.1672633.935484.3010752zm9.44086 1.4050179h-1.498208v5.3476703h1.204301c.320193 0 .549581.062126.688172.1863799s.207886.3249688.207886.6021506c0 .2819607-.069295.485065-.207886.609319-.138591.1242539-.367979.1863799-.688172.1863799h-4.258064c-.315414 0-.542413-.062126-.681004-.1863799-.138591-.124254-.207885-.3273583-.207885-.609319 0-.2819608.0681-.4838704.204301-.6057348s.364395-.1827957.684588-.1827957h1.204301v-5.3476703h-1.498208l-.043011 1.4551972v.1792114c0 .2293919-.063321.4086015-.189964.5376345-.126643.1290329-.302269.1935483-.526882.1935483-.267623 0-.464754-.0680996-.591398-.204301-.126643-.1362014-.189964-.3524478-.189964-.6487456v-.0573476l.078853-2.1433692c.014337-.4253307.072879-.6810032.175628-.7670251.102748-.0860219.311826-.1290322.62724-.1290322h6.164874c.315414 0 .524492.0430103.62724.1290322.102749.0860219.16368.3416944.182796.7670251l.071685 2.1433692v.0573476c0 .3010768-.059737.5185179-.179212.6523298s-.313021.2007168-.580645.2007168c-.258066 0-.443249-.0657102-.555555-.1971326-.112307-.1314224-.173238-.3691739-.182796-.7132616zm-88.7311827 14.1935484c.0716849-.1529279.1529266-.2580642.2437276-.3154122.0908009-.0573479.2293897-.0860215.4157706-.0860215.2771818 0 .4551967.0513735.5340502.1541219.0788534.1027484.1230585.3070475.1326165.6129032l.0286738 1.3763441v.0788531c0 .2819607-.0561524.4790914-.1684588.5913978s-.3022687.1684588-.5698925.1684588c-.3393087 0-.5925917-.1815992-.7598566-.5448029-.023895-.0525689-.0430107-.0955793-.0573477-.1290322-.1481489-.2962978-.3488637-.5197125-.6021505-.6702509s-.5519696-.2258065-.8960573-.2258065c-.4301097 0-.7777765.0991627-1.0430108.2974911-.2652343.1983283-.3978495.452806-.3978495.7634408 0 .4396677.6069235.7861397 1.8207886 1.0394265.2054968.043011.3679803.0764635.4874552.1003585.9175673.2007178 1.5818378.506569 1.9928315.9175627s.6164875.9725173.6164875 1.6845878c0 .8793353-.2986828 1.5567479-.8960574 2.0322581-.5973745.4755101-1.4528021.7132617-2.5663082.7132617-.4348887 0-.8231763-.028674-1.1648746-.086022-.3416982-.0573475-.6726388-.1457577-.9928315-.2652326-.076464.1242539-.1648741.2138588-.265233.2688176-.1003589.054958-.2389477.082437-.4157706.082437-.3010768 0-.5113495-.057347-.6308244-.1720431-.1194749-.1146959-.1816009-.3178002-.1863799-.609319l-.0286738-1.6845878v-.0788531c0-.3154137.0585418-.5352443.1756272-.6594982s.3213844-.1863799.6129032-.1863799c.3106348 0 .5710862.2246095.781362.6738351.04779.109917.0860214.1935481.1146954.2508961.1863808.3679827.4456375.6427709.7777777.8243728.3321403.1816018.7395436.2724014 1.2222223.2724014.4396676 0 .7813608-.0907996 1.0250896-.2724014.2437288-.1816019.3655914-.4372744.3655914-.7670251 0-.5113527-.5519658-.8984456-1.655914-1.1612904-.3297508-.0764639-.5902022-.1409794-.781362-.1935483-.9271253-.2437289-1.5698907-.5483853-1.9283154-.9139785-.3584248-.3655933-.5376344-.8661856-.5376344-1.5017922 0-.8172083.3070459-1.4850631.9211469-2.0035842.6141011-.5185211 1.4085973-.7777778 2.3835126-.7777778.3249717 0 .6439649.0334525.9569892.1003585.3130243.0669059.6248491.1672633.9354839.3010752zm9.0752688 1.3476703h-3.3333333v1.8351254h1.2616487v-.0860215c0-.2724028.0597366-.4755071.1792115-.609319s.301074-.2007168.5448028-.2007168c.2150549 0 .3906804.0609313.5268818.1827957s.204301.2759847.204301.4623656c0 .009558.0023895.040621.0071685.0931899.004779.052569.0071685.1051372.0071685.1577061v1.483871c0 .3201928-.0573471.5495811-.172043.688172-.114696.1385909-.301074.2078853-.5591398.2078853-.2437289 0-.4277175-.0645154-.5519714-.1935483s-.1863799-.3201899-.1863799-.5734767v-.1290323h-1.2616487v2.1433692h3.3333333v-.8530466c0-.3201928.0609313-.5495812.1827957-.6881721s.3213845-.2078853.5985663-.2078853c.2724028 0 .467144.0680997.5842294.2043011s.1756272.3667845.1756272.6917563v1.734767c0 .2580658-.0501787.4301071-.1505376.516129-.1003589.086022-.2986843.1290323-.5949821.1290323h-5.8709677c-.3154138 0-.541218-.062126-.6774194-.1863799s-.204301-.3273582-.204301-.609319c0-.2532868.0645154-.4456386.1935483-.577061s.3178005-.1971326.5663083-.1971326h.1218638v-5.3476702h-.1218638c-.2437288 0-.4313016-.0680997-.562724-.2043011s-.1971326-.3309426-.1971326-.5842294c0-.2771818.0692944-.4790914.2078853-.6057348s.3632003-.1899641.6738351-.1899641h5.8709677c.2915188 0 .4886495.044205.5913979.1326165.1027484.0884114.1541218.2640369.1541218.5268817v1.6057348c0 .3249717-.0597365.5579443-.1792114.6989247s-.3130214.2114695-.5806452.2114695c-.2771818 0-.4767019-.0716839-.5985663-.2150537-.1218644-.1433699-.1827957-.3751478-.1827957-.6953405zm10.3655914 5.4193548h.1218638c.2580658 0 .4540017.0657102.5878136.1971326s.2007169.3237742.2007169.577061c0 .2819608-.0704892.4850651-.2114696.609319s-.3739529.1863799-.6989247.1863799h-2.1577061c-.3297507 0-.5639181-.0609313-.702509-.1827957s-.2078853-.3261634-.2078853-.6129032c0-.2771818.0692944-.4755072.2078853-.5949821s.3727583-.1792115.702509-.1792115h.2508961l-.2939068-.8387097h-3.0967742l-.3082438.8387097h.2508961c.3249717 0 .5579443.0609313.6989247.1827957s.2114696.3189951.2114696.5913979c0 .2819608-.0704892.4850651-.2114696.609319s-.373953.1863799-.6989247.1863799h-1.8494624c-.3297507 0-.563918-.062126-.7025089-.1863799s-.2078853-.3273582-.2078853-.609319c0-.2532868.0669049-.4456386.2007168-.577061s.3297478-.1971326.5878136-.1971326h.1218638l1.921147-5.3476702h-.5734767c-.3249718 0-.5579444-.0621261-.6989248-.18638s-.2114695-.3249687-.2114695-.6021505c0-.2819608.0704891-.4850651.2114695-.609319s.373953-.1863799.6989248-.1863799h2.688172c.4253307 0 .7240135.2293884.8960574.688172v.0215054zm-3.7562724-5.3476702-1.0394265 3.0250896h2.078853zm11.3763441-.014337h-1.4982079v5.3476703h1.2043011c.3201927 0 .5495811.062126.688172.1863799s.2078853.3249688.2078853.6021506c0 .2819608-.0692944.4850651-.2078853.609319s-.3679793.1863799-.688172.1863799h-4.2580645c-.3154138 0-.5424127-.062126-.6810036-.1863799s-.2078853-.3273582-.2078853-.609319.0680996-.4838704.204301-.6057348.3643951-.1827957.6845879-.1827957h1.204301v-5.3476703h-1.4982079l-.0430107 1.4551972v.1792115c0 .2293918-.0633208.4086015-.1899642.5376344s-.3022689.1935483-.5268817.1935483c-.2676238 0-.4647544-.0680996-.5913978-.204301s-.1899642-.3524478-.1899642-.6487455v-.0573477l.0788531-2.1433692c.0143369-.4253307.0728788-.6810031.1756272-.7670251.1027484-.0860219.3118264-.1290322.6272401-.1290322h6.1648746c.3154138 0 .5244917.0430103.6272401.1290322.1027485.086022.1636797.3416944.1827957.7670251l.0716846 2.1433692v.0573477c0 .3010767-.0597365.5185178-.1792114.6523297-.119475.1338119-.3130214.2007168-.5806452.2007168-.2580658 0-.4432491-.0657102-.5555556-.1971326-.1123064-.1314224-.1732377-.3691739-.1827957-.7132616zm8.8100358 0h-1.4982079v5.3476703h1.2043011c.3201928 0 .5495812.062126.6881721.1863799s.2078853.3249688.2078853.6021506c0 .2819608-.0692944.4850651-.2078853.609319s-.3679793.1863799-.6881721.1863799h-4.2580645c-.3154138 0-.5424127-.062126-.6810036-.1863799s-.2078853-.3273582-.2078853-.609319.0680997-.4838704.2043011-.6057348.364395-.1827957.6845878-.1827957h1.2043011v-5.3476703h-1.4982079l-.0430108 1.4551972v.1792115c0 .2293918-.0633207.4086015-.1899641.5376344s-.3022689.1935483-.5268817.1935483c-.2676238 0-.4647545-.0680996-.5913979-.204301s-.1899641-.3524478-.1899641-.6487455v-.0573477l.078853-2.1433692c.014337-.4253307.0728788-.6810031.1756272-.7670251.1027485-.0860219.3118264-.1290322.6272402-.1290322h6.1648745c.3154138 0 .5244918.0430103.6272398.1290322.102749.086022.16368.3416944.182796.7670251l.071685 2.1433692v.0573477c0 .3010767-.059737.5185178-.179212.6523297s-.3130212.2007168-.580645.2007168c-.2580658 0-.4432491-.0657102-.5555555-.1971326s-.1732377-.3691739-.1827957-.7132616zm5.612903.014337v5.3476702h3.261649v-1.2759856c0-.3297508.058542-.5639181.175627-.702509.117086-.1385909.311827-.2078853.58423-.2078853.272402 0 .470728.0704891.594982.2114695s.18638.373953.18638.6989248v2.2007168c0 .2580658-.050179.4301071-.150538.516129-.100359.086022-.301074.1290323-.602151.1290323h-6.501792c-.310634 0-.532854-.062126-.666666-.1863799s-.200717-.3273582-.200717-.609319c0-.2771818.06571-.4755072.197132-.5949821.131423-.1194749.354838-.1792115.670251-.1792115h.630825v-5.3476702h-.630825c-.310634 0-.532854-.0621261-.666666-.18638s-.200717-.3249687-.200717-.6021505.070489-.4790914.211469-.6057348c.140981-.1266434.364395-.1899641.670251-.1899641h3.053764c.305855 0 .52927.0633207.670251.1899641.14098.1266434.211469.328553.211469.6057348s-.069294.4778966-.207885.6021505-.363201.18638-.673835.18638zm11.641577-.0716846h-3.333333v1.8351254h1.261649v-.0860215c0-.2724028.059736-.4755071.179211-.609319s.301074-.2007168.544803-.2007168c.215055 0 .39068.0609313.526882.1827957.136201.1218644.204301.2759847.204301.4623656 0 .009558.002389.040621.007168.0931899.004779.052569.007169.1051372.007169.1577061v1.483871c0 .3201928-.057347.5495811-.172043.688172s-.301074.2078853-.55914.2078853c-.243729 0-.427717-.0645154-.551971-.1935483s-.18638-.3201899-.18638-.5734767v-.1290323h-1.261649v2.1433692h3.333333v-.8530466c0-.3201928.060932-.5495812.182796-.6881721s.321385-.2078853.598566-.2078853c.272403 0 .467144.0680997.58423.2043011.117085.1362014.175627.3667845.175627.6917563v1.734767c0 .2580658-.050179.4301071-.150538.516129-.100359.086022-.298684.1290323-.594982.1290323h-5.870968c-.315413 0-.541217-.062126-.677419-.1863799-.136201-.1242539-.204301-.3273582-.204301-.609319 0-.2532868.064516-.4456386.193548-.577061.129033-.1314224.317801-.1971326.566309-.1971326h.121863v-5.3476702h-.121863c-.243729 0-.431302-.0680997-.562724-.2043011-.131423-.1362014-.197133-.3309426-.197133-.5842294 0-.2771818.069294-.4790914.207885-.6057348s.363201-.1899641.673835-.1899641h5.870968c.291519 0 .48865.044205.591398.1326165.102749.0884114.154122.2640369.154122.5268817v1.6057348c0 .3249717-.059737.5579443-.179212.6989247-.119474.1409804-.313021.2114695-.580645.2114695-.277181 0-.476702-.0716839-.598566-.2150537-.121864-.1433699-.182796-.3751478-.182796-.6953405zm6.387097 4.5089606h1.706093c.076464 0 .137396.0143367.182796.0430107s.0681.0669054.0681.1146953c0 .023895-.005973.0537633-.017921.0896058-.011947.0358425-.027479.0752686-.046595.1182796l-2.143369 4.2007166c-.033453.076464-.081242.137395-.143369.182796-.062127.0454-.131422.0681-.207885.0681-.019116 0-.041816-.003584-.068101-.010752-.026284-.007169-.051374-.013143-.075269-.017922l-.544802-.193548c-.081243-.028674-.143369-.0681-.18638-.11828-.043011-.050179-.064517-.103942-.064517-.16129 0-.052569.001195-.091995.003585-.118279.002389-.026285.005973-.051374.010752-.075269l1.017922-3.7275988c.04301-.1624859.099163-.268817.168458-.3189964.069296-.0501795.182795-.0752688.340502-.0752688zm15.921147-4.437276.258065 4.2007168.88172-3.0967742c.066906-.2293918.176821-.4014331.329749-.516129s.351253-.172043.594982-.172043.43847.0549576.58423.1648745c.145759.1099169.254479.2843477.326164.5232975l.896058 3.0967742.250896-4.2007168h-.193549c-.277181 0-.482675-.0645155-.616487-.1935484s-.200717-.3273583-.200717-.5949821c0-.2867398.066905-.4910388.200717-.6129032s.36559-.1827957.69534-.1827957h1.727599c.324972 0 .555555.062126.691756.1863799.136202.1242539.204301.3273582.204301.609319 0 .2580658-.06571.4540017-.197132.5878136-.131423.1338119-.323774.2007169-.577061.2007169h-.121864l-.688172 6.3154122c-.023895.2485078-.071684.4109912-.143369.4874552-.071685.0764639-.238947.1146953-.501792.1146953h-.336918c-.200718 0-.34767-.0370367-.44086-.1111111-.09319-.0740745-.185185-.2664262-.275986-.577061l-1.311828-4.2580645-1.261648 4.2580645c-.086022.3010768-.175627.4910391-.268818.5698925-.09319.0788535-.242531.1182796-.448028.1182796h-.336918c-.258066 0-.421744-.0370367-.491039-.1111111-.069296-.0740745-.11589-.2377526-.139785-.4910394l-.709678-6.3154122h-.114695c-.253287 0-.446833-.066905-.580645-.2007169s-.200717-.3297478-.200717-.5878136c0-.2819608.069294-.4850651.207885-.609319s.36798-.1863799.688172-.1863799h1.734767c.324972 0 .555555.062126.691757.1863799.136201.1242539.204301.3273582.204301.609319 0 .2676238-.066905.4659492-.200717.5949821s-.341695.1935484-.623656.1935484zm14.487455 5.3476702h.121864c.258066 0 .454002.0657102.587814.1971326s.200717.3237742.200717.577061c0 .2819608-.07049.4850651-.21147.609319s-.373953.1863799-.698925.1863799h-2.157706c-.329751 0-.563918-.0609313-.702509-.1827957s-.207885-.3261634-.207885-.6129032c0-.2771818.069294-.4755072.207885-.5949821s.372758-.1792115.702509-.1792115h.250896l-.293907-.8387097h-3.096774l-.308244.8387097h.250897c.324971 0 .557944.0609313.698924.1827957.140981.1218644.21147.3189951.21147.5913979 0 .2819608-.070489.4850651-.21147.609319-.14098.1242539-.373953.1863799-.698924.1863799h-1.849463c-.329751 0-.563918-.062126-.702509-.1863799s-.207885-.3273582-.207885-.609319c0-.2532868.066905-.4456386.200717-.577061s.329748-.1971326.587813-.1971326h.121864l1.921147-5.3476702h-.573477c-.324971 0-.557944-.0621261-.698924-.18638-.140981-.1242539-.21147-.3249687-.21147-.6021505 0-.2819608.070489-.4850651.21147-.609319.14098-.1242539.373953-.1863799.698924-.1863799h2.688172c.425331 0 .724014.2293884.896058.688172v.0215054zm-3.756272-5.3476702-1.039427 3.0250896h2.078853zm19.075269 2.9390681c-.229392.2628448-.50657.4659491-.831542.609319-.324971.1433699-.673833.2150537-1.046595.2150537-.769418 0-1.416962-.2939038-1.942652-.8817204-.525689-.5878166-.78853-1.3118237-.78853-2.172043 0-.9127883.295098-1.6499375.885304-2.2114695.590206-.5615321 1.370366-.842294 2.340502-.842294 1.013147 0 1.812423.369172 2.39785 1.1075269.585427.738355.878136 1.7526817.878136 3.0430108 0 1.6105218-.451609 2.9044156-1.354839 3.8817204s-2.095572 1.46595-3.577061 1.46595c-.501794 0-.860214-.041816-1.075269-.1254482-.215055-.0836324-.32258-.2186371-.32258-.4050179 0-.4348887.336914-.669056 1.010752-.702509.28674-.019116.518518-.0382317.695341-.0573476.755081-.090801 1.348863-.3667839 1.781362-.827957.432499-.4611732.749103-1.1600909.949821-2.0967742zm-.028674-2.2724015c0-.4826786-.135005-.8733557-.405018-1.172043s-.615291-.4480287-1.035842-.4480287c-.391878 0-.709677.1421731-.953405.4265233-.243729.2843503-.365592.6559117-.365592 1.1146954 0 .4731206.129031.8590188.387097 1.1577061s.587812.4480287.989247.4480287c.396657 0 .726403-.1445625.989248-.4336918.262844-.2891293.394265-.6535223.394265-1.09319zm7.526882 2.4014337c-.439668 0-.793309.1218626-1.060932.3655914-.267624.2437288-.401434.5686957-.401434.9749104 0 .3870987.136199.706092.408602.9569893s.623654.3763441 1.053764.3763441c.444446 0 .800476-.1218626 1.0681-.3655914.267624-.2437289.401434-.5663063.401434-.967742 0-.3966567-.1362-.7192341-.408603-.9677419-.272402-.2485078-.626043-.3727599-1.060931-.3727599zm1.634408-.7885304c.540027.1959388.955793.4850638 1.247312.8673835s.437276.8267597.437276 1.3333333c0 .7885344-.305851 1.4312998-.917563 1.9283154-.611711.4970156-1.412181.7455199-2.401433.7455199-.970137 0-1.764633-.2485043-2.383513-.7455199s-.928315-1.1302231-.928315-1.8996416c0-.5161316.145757-.9665452.437276-1.3512544.291518-.3847093.707285-.6774184 1.247311-.8781362-.525689-.2293919-.921145-.5185168-1.18638-.8673836-.265234-.3488667-.397849-.7598542-.397849-1.2329749 0-.7359654.299878-1.3428889.899642-1.8207885s1.370365-.7168459 2.311828-.7168459c.941462 0 1.715648.2413357 2.32258.7240144.606933.4826786.910394 1.0872126.910394 1.81362 0 .4731207-.135004.8864977-.405017 1.2401434-.270014.3536457-.667859.6403812-1.193549.8602151zm-1.634408-3.2903226c-.401436 0-.733571.1194731-.996416.3584229s-.394265.5400221-.394265.9032258c0 .3632038.13142.664276.394265.9032258.262845.2389499.59498.358423.996416.358423.410993 0 .744323-.115889 1-.3476703.255676-.2317813.383512-.5364378.383512-.9139785 0-.3632037-.129031-.664276-.387097-.9032258-.258065-.2389498-.590201-.3584229-.996415-.3584229zm9.899641 6.4014337h1.16129c.320193 0 .551971.0597365.695341.1792114.14337.119475.215054.3154109.215054.5878137 0 .2676238-.069295.4611702-.207886.5806451-.13859.1194749-.372758.1792115-.702509.1792115h-4.22939c-.329751 0-.563918-.0597366-.702509-.1792115s-.207886-.3130213-.207886-.5806451c0-.2724028.07049-.4683387.21147-.5878137.14098-.1194749.373953-.1792114.698925-.1792114h1.333333v-6.0501792l-.802867.2078853c-.124254.0286739-.227001.0501791-.308244.0645161s-.14098.0215054-.179211.0215054c-.195939 0-.34767-.0621261-.455198-.18638-.107527-.1242539-.16129-.3010741-.16129-.5304659 0-.1672649.059737-.3082432.179212-.4229391.119474-.1146959.303463-.203106.551971-.265233l1.777778-.4874551c.148149-.038232.270011-.0669056.365591-.0860216.09558-.0191159.174432-.0286738.236559-.0286738.19116 0 .327359.0525682.408602.1577061s.121864.2819581.121864.530466zm7.72043-6.1362007c-.506573 0-.906808.2771776-1.200717.8315412-.293908.5543636-.44086 1.3189915-.44086 2.2939068 0 .9892522.145757 1.7622433.437276 2.3189964s.692949.8351254 1.204301.8351254c.511353 0 .913977-.2783723 1.207886-.8351254.293908-.5567531.44086-1.3297442.44086-2.3189964 0-.9749153-.146952-1.7395432-.44086-2.2939068-.293909-.5543636-.696533-.8315412-1.207886-.8315412zm-.014337-1.6129033c1.099169 0 1.971323.4265191 2.616488 1.2795699.645164.8530509.967742 2.0107454.967742 3.4731183 0 1.4671519-.322578 2.6272359-.967742 3.4802867-.645165.8530509-1.517319 1.2795701-2.616488 1.2795701-1.089611 0-1.953402-.4265192-2.591398-1.2795701-.637996-.8530508-.956989-2.0131348-.956989-3.4802867s.318993-2.6260411.956989-3.4767025 1.501787-1.2759857 2.591398-1.2759857zm10.738352 5.6917563c.014337.004779.028673.0083632.04301.0107527s.038232.0035842.071685.0035842c.09558 0 .205495-.0609313.329749-.1827957s.22939-.1827957.315412-.1827957c.200718 0 .358423.048984.473118.1469534.114696.0979695.172043.2353635.172043.4121864 0 .04779-.003584.0979687-.010752.1505376-.007169.052569-.017921.1003582-.032258.1433692l-.157706.530466c-.028674.1003589-.076464.1744322-.14337.2222222-.066905.04779-.152926.0716846-.258064.0716846h-.802867v.8960573h.422939c.043011 0 .097968.0023895.164874.0071685s.109916.0071684.129032.0071684c.172044 0 .317802.0633208.437276.1899642.119475.1266434.179212.2879321.179212.483871 0 .2389498-.070489.4109911-.21147.516129-.14098.1051379-.373953.1577061-.698924.1577061h-3.02509c-.324972 0-.555555-.0525682-.691756-.1577061-.136202-.1051379-.204301-.2771792-.204301-.516129 0-.2437289.069294-.4193543.207885-.5268818.138591-.1075274.367979-.1612903.688172-.1612903h1.046595v-.8960573h-3.304659c-.124254 0-.218638-.0382314-.283155-.1146954-.064516-.0764639-.096774-.1863792-.096774-.3297491v-.437276c0-.1768228.013142-.3142169.039427-.4121863.026284-.0979695.070489-.2019111.132616-.311828l3.010753-5.1182796c.071685-.1194749.130227-.1935482.175627-.2222222.045401-.028674.108721-.0430107.189964-.0430107.043011 0 .080048.0011947.111111.0035842.031064.0023895.058543.0059737.082438.0107527l1.275985.2222222c.071685.014337.126643.0525684.164875.1146953.038232.062127.057348.1457582.057348.2508961zm-1.555556-3.9641577-2.250896 3.9641577h2.250896z" fill="#000"/><g transform="translate(.930652 441.001524)"><path d="m438.337122 25.12034-12.285445-25.12034h-49.137591l12.2945 25.12034z" fill="#ff0017"/><path d="m519.303852 25.12034-12.285446-25.12034h-49.137591l12.2945 25.12034z" fill="#0080fc"/><path d="m600.270581 25.12034-12.285445-25.12034h-49.137591l12.2945 25.12034z" fill="#ff0017"/><path d="m651.456445 0h-29.780866l12.418583 25.12034h17.362283z" fill="#0080fc"/><path d="m111.678248 25.12034-12.2854457-25.12034h-49.1375909l12.2945 25.12034z" fill="#ff0017"/><path d="m193.575629 25.12034-12.285445-25.12034h-49.137591l12.2945 25.12034z" fill="#0080fc"/><path d="m274.542359 25.12034-12.285446-25.12034h-49.13759l12.2945 25.12034z" fill="#ff0017"/><g fill="#0080fc"><path d="m355.509088 25.12034-12.285445-25.12034h-49.137591l12.2945 25.12034z"/><path d="m30.7115181 25.12034-12.2854451-25.12034h-18.426073l.00000028 25.12034z"/></g></g><g transform="matrix(-1 0 0 -1 652.387097 26.063543)"><path d="m438.337122 25.1331602-12.285445-25.12033996h-49.137591l12.2945 25.12033996z" fill="#ff0017"/><path d="m519.303852 25.1331602-12.285446-25.12033996h-49.137591l12.2945 25.12033996z" fill="#0080fc"/><path d="m600.270581 25.1331602-12.285445-25.12033996h-49.137591l12.2945 25.12033996z" fill="#ff0017"/><path d="m651.456445.01282024h-29.780866l12.418583 25.12033996h17.362283z" fill="#0080fc"/><path d="m111.678248 25.1331602-12.2854457-25.12033996h-49.1375909l12.2945 25.12033996z" fill="#ff0017"/><path d="m193.575629 25.1331602-12.285445-25.12033996h-49.137591l12.2945 25.12033996z" fill="#0080fc"/><path d="m274.542359 25.1331602-12.285446-25.12033996h-49.13759l12.2945 25.12033996z" fill="#ff0017"/><g fill="#0080fc"><path d="m355.509088 25.1331602-12.285445-25.12033996h-49.137591l12.2945 25.12033996z"/><path d="m30.7115181 25.1331602-12.2854451-25.12033996h-18.426073l.00000028 25.12033996z"/></g></g><g transform="matrix(0 -1 1 0 627.263124 431.754878)"><path d="m395.211855 25.12034-12.589355-25.12034h-50.353123l12.598633 25.12034z" fill="#ff0017"/><path d="m62.942478 25.12034-12.5893545-25.12034h-50.3531235l12.598633 25.12034z" fill="#ff0017"/><path d="m146.009822 25.12034-12.589354-25.12034h-50.3531238l12.598633 25.12034z" fill="#0080fc"/><path d="m229.077166 25.12034-12.589354-25.12034h-50.353124l12.598633 25.12034z" fill="#ff0017"/><path d="m312.144511 25.12034-12.589355-25.12034h-50.353123l12.598633 25.12034z" fill="#0080fc"/></g><g transform="matrix(0 1 -1 0 26.067445 36.227751)"><path d="m395.211855 25.1331602-12.589355-25.12033996h-50.353123l12.598633 25.12033996z" fill="#ff0017"/><path d="m62.942478 25.1331602-12.5893545-25.12033996h-50.3531235l12.598633 25.12033996z" fill="#ff0017"/><path d="m146.009822 25.1331602-12.589354-25.12033996h-50.3531238l12.598633 25.12033996z" fill="#0080fc"/><path d="m229.077166 25.1331602-12.589354-25.12033996h-50.353124l12.598633 25.12033996z" fill="#ff0017"/><path d="m312.144511 25.1331602-12.589355-25.12033996h-50.353123l12.598633 25.12033996z" fill="#0080fc"/></g></g><g transform="translate(637.78853 332.240143)"><path d="m24.4722508 101.269351h-6.9437709c-.4579988-2.6013388-2.5366276-4.5658604-5.0327332-4.5658604-2.49610552 0-4.57473436 1.9645216-5.03273309 4.5658604h-7.348991v-5.822193c2.83103744-.3542146 5.00271682-2.4002007 5.00271682-4.8715328s-2.17167938-4.5173182-5.00271682-4.8715329v-6.5979088c2.83103744-.3542146 5.00271682-2.4002007 5.00271682-4.8715328s-2.17167938-4.5173182-5.00271682-4.8715329v-5.6732018c2.70772047-.4402451 4.75258097-2.436968 4.75258097-4.835006s-2.0448605-4.3947609-4.75258097-4.835006v-6.6709625c2.70772047-.4400048 4.75258097-2.436968 4.75258097-4.835006s-2.0448605-4.3950012-4.75258097-4.835006v-5.2291118c2.70772047-.4400048 4.75258097-2.436968 4.75258097-4.835006s-2.0448605-4.3950012-4.75258097-4.835006v-6.6709625c2.70772047-.4400048 4.75258097-2.436968 4.75258097-4.835006 0-2.39803802-2.0448605-4.39500122-4.75258097-4.83500599v-5.85871998h8.09939853c.45824886 2.60133896 2.53662756 4.56586053 5.03273316 4.56586053 2.4961055 0 4.5744842-1.96452157 5.0327331-4.56586053h6.3599539c.1690918 2.95074744 2.3943002 5.28678587 5.1162785 5.28678587 2.7219782 0 4.9471866-2.33603843 5.1162784-5.28678587h6.2941682c.2723979 2.83636062 2.450831 5.04647742 5.0985189 5.04647742 2.6476878 0 4.8261209-2.2101168 5.0985188-5.04647742h5.2936248c-.0067537.1194333-.0115062.23934722-.0115062.36046268 0 3.11896335 2.2957467 5.64724854 5.1277847 5.64724854s5.1277847-2.52828519 5.1277847-5.64724854c0-.12111546-.0047525-.24102938-.0115062-.36046268h6.5440539c.272648 2.83636062 2.4510811 5.04647742 5.0987689 5.04647742 2.6476879 0 4.826121-2.2101168 5.098769-5.04647742h7.0898503c.3687002 2.71981102 2.4983568 4.80616897 5.0707538 4.80616897s4.7020532-2.08635795 5.0707542-4.80616897h6.822204c.169092 2.95074744 2.394301 5.28678587 5.116279 5.28678587s4.947187-2.33603843 5.116278-5.28678587h6.276409c.169092 2.95074744 2.3943 5.28678587 5.116278 5.28678587 2.721979 0 4.947187-2.33603843 5.116279-5.28678587h6.765174v5.3415762c-.285905-.03580596-.578064-.05479033-.875476-.05479033-3.246513 0-5.878192 2.20555094-5.878192 4.9263232 0 2.7207722 2.631679 4.9263232 5.878192 4.9263232.297412 0 .589571-.0189844.875476-.0547903v6.5979087c-.285905-.0358059-.578064-.0547903-.875476-.0547903-3.246513 0-5.878192 2.2055509-5.878192 4.9263232 0 2.7207722 2.631679 4.9263232 5.878192 4.9263232.297412 0 .589571-.0189844.875476-.0547903v5.156058c-.285905-.0358059-.578064-.0547903-.875476-.0547903-3.246513 0-5.878192 2.2055509-5.878192 4.9263232 0 2.7207722 2.631679 4.9263232 5.878192 4.9263232.297412 0 .589571-.0189844.875476-.0547903v6.5979087c-.285905-.0358059-.578064-.0547903-.875476-.0547903-3.246513 0-5.878192 2.2055509-5.878192 4.9263232 0 2.7207722 2.631679 4.9263232 5.878192 4.9263232.297412 0 .589571-.0189844.875476-.0547903v5.6097604c-.205362-.0180232-.413975-.0278758-.62534-.0278758-3.246513 0-5.878192 2.2055509-5.878192 4.9263232 0 2.7207722 2.631679 4.9263232 5.878192 4.9263232.211365 0 .419978-.0098527.62534-.0278758v6.5440797c-.205362-.0180232-.413975-.0278758-.62534-.0278758-3.246513 0-5.878192 2.2055509-5.878192 4.9263232 0 2.7207722 2.631679 4.9263232 5.878192 4.9263232.211365 0 .419978-.0098527.62534-.0278758v6.2758953h-6.782684c-.272648-2.8363605-2.451081-5.0464773-5.098769-5.0464773-2.647687 0-4.82612 2.2101168-5.098769 5.0464773h-6.811699c-.272648-2.8363605-2.451081-5.0464773-5.098769-5.0464773s-4.826121 2.2101168-5.098769 5.0464773h-6.061291c-.272648-2.8363605-2.4510815-5.0464773-5.0987694-5.0464773s-4.8261209 2.2101168-5.098769 5.0464773h-6.8116992c-.2726481-2.8363605-2.4510811-5.0464773-5.098769-5.0464773s-4.8261209 2.2101168-5.098769 5.0464773h-5.811406c-.2723979-2.8363605-2.4508309-5.0464773-5.0985188-5.0464773s-4.8261209 2.2101168-5.0985188 5.0464773h-6.8121995c-.272398-2.8363605-2.450831-5.0464773-5.0985189-5.0464773s-4.8261209 2.2101168-5.0985188 5.0464773h-6.3777136c-.4579987-2.6013388-2.5366275-4.5658604-5.0327331-4.5658604-2.4961055 0-4.5747344 1.9645216-5.0327331 4.5658604z" fill="#0080fc"/><path d="m10.215532 9.343987h120.873596v83.161488h-120.873596z" fill="#fff" fill-rule="evenodd"/><path d="m11.715532 10.843987h117.873596v80.161488h-117.873596z" stroke="#ff0017" stroke-width="3"/><g fill="#0080fc" stroke="#07629b" stroke-width="4"><path d="m48.3372043 58.8671204c7.7026901 0 13.9469534-6.275168 13.9469534-14.015981s-6.2442633-14.0159811-13.9469534-14.0159811-13.9469534 6.2751681-13.9469534 14.0159811 6.2442633 14.015981 13.9469534 14.015981z" opacity=".553835"/><path d="m54.3808841 69.1455066c4.8783704 0 8.8330705-3.9742732 8.8330705-8.876788 0-4.9025149-3.9547001-8.876788-8.8330705-8.876788s-8.8330705 3.9742731-8.8330705 8.876788c0 4.9025148 3.9547001 8.876788 8.8330705 8.876788z" opacity=".327912"/><path d="m82.2747909 77.5550952c14.1215985 0 25.5694141-11.5044748 25.5694141-25.6959653 0-14.1914904-11.4478156-25.6959653-25.5694141-25.6959653-14.1215984 0-25.5694146 11.5044749-25.5694146 25.6959653 0 14.1914905 11.4478162 25.6959653 25.5694146 25.6959653z" opacity=".459801"/></g></g><g stroke="#979797" stroke-width="4" transform="translate(531.351254 359.767025)"><ellipse cx="117.885471" cy="41.734305" rx="41.770443" ry="41.734305"/><ellipse cx="117.885471" cy="41.734305" rx="32.488122" ry="32.460015"/><g stroke-linecap="round" stroke-linejoin="bevel" transform="matrix(.99862953 -.05233596 .05233596 .99862953 .534097 32.042012)"><path d="m12.5311328 53.3271669s7.0253513-3.8531339 19.9569892-5.5991406c12.931638-1.7460067 31.4972096 5.6436229 41.7704426 2.3531392 9.060112-2.9019252 15.9673721-9.27902 26.4546134-14.8388639 10.487242-5.5598437 23.669918-1.3911435 23.669918-1.3911435"/><path d="m8.81820455 42.8389667s7.02535125-3.8531339 19.95698925-5.5991406 31.4972096 5.643623 41.7704426 2.3531392c9.060112-2.9019252 15.967372-9.27902 26.4546137-14.8388639 10.4872419-5.5598437 23.6699179-1.3911435 23.6699179-1.3911435"/><path d="m4.17704426 32.3507666s7.02535124-3.853134 19.95698924-5.5991407c12.931638-1.7460066 31.4972096 5.643623 41.7704426 2.3531392 9.060112-2.9019252 15.967372-9.27902 26.4546137-14.8388639 10.4872422-5.5598437 23.6699172-1.3911434 23.6699172-1.3911434"/><path d="m.46411603 21.8625664s7.02535127-3.8531339 19.95698927-5.5991406 31.4972095 5.6436229 41.7704426 2.3531391c9.060112-2.9019251 15.967372-9.27901998 26.4546136-14.83886383 10.4872422-5.55984375 23.6699175-1.39114349 23.6699175-1.39114349"/></g></g></g></svg>