<svg width="50" height="50" viewBox="0 0 50 50" fill="none" xmlns="http://www.w3.org/2000/svg">
<path d="M18.36 21.64L18.74 22.36L13.02 25.34L18.74 28.4L18.36 29.12L12.18 25.74V24.94L18.36 21.64Z" fill="black"/>
<path d="M26.3058 15.98L27.0858 16.16L22.8858 33.96L22.1058 33.78L26.3058 15.98Z" fill="black"/>
<path d="M30.8412 21.64L37.0212 24.94V25.74L30.8412 29.12L30.4612 28.4L36.2012 25.34L30.4612 22.36L30.8412 21.64Z" fill="black"/>
<path d="M3.84937 12.7887L25 0.57735L46.1506 12.7887V37.2113L25 49.4226L3.84937 37.2113V12.7887Z" stroke="black"/>
<path d="M8.17949 15.2887L25 5.57735L41.8205 15.2887V34.7113L25 44.4226L8.17949 34.7113V15.2887Z" stroke="black"/>
</svg>
